<?xml version="1.0" standalone="no"?>
<!DOCTYPE svg PUBLIC "-//W3C//DTD SVG 20010904//EN"
 "http://www.w3.org/TR/2001/REC-SVG-20010904/DTD/svg10.dtd">
<svg version="1.0" xmlns="http://www.w3.org/2000/svg"
 width="196.000000pt" height="164.000000pt" viewBox="0 0 196.000000 164.000000"
 preserveAspectRatio="xMidYMid meet">

<g transform="translate(0.000000,164.000000) scale(0.100000,-0.100000)"
fill="#000000" stroke="none">
<path d="M870 1531 l0 -99 80 -4 c44 -2 80 -2 80 -2 0 1 -23 24 -50 52 l-50
51 52 3 52 3 -77 48 c-43 26 -80 47 -82 47 -3 0 -5 -45 -5 -99z m64 18 c-6
-10 -38 -12 -47 -2 -4 3 1 12 11 19 18 13 47 0 36 -17z m1 -49 c9 -15 -4 -50
-19 -50 -22 0 -36 22 -25 42 11 20 34 24 44 8z"/>
<path d="M1176 1604 c-8 -8 -22 -14 -31 -14 -8 0 -20 -12 -26 -26 -10 -29 -4
-64 13 -64 6 0 8 -14 3 -37 l-7 -38 26 24 26 24 0 -34 c1 -32 1 -33 15 -15 8
11 15 30 15 43 0 27 18 31 27 6 11 -32 46 -65 54 -51 14 22 36 -9 31 -44 l-5
-33 27 24 26 24 0 -37 c0 -46 15 -39 31 14 7 22 16 40 20 40 12 0 23 -41 20
-76 -1 -19 6 -37 18 -48 16 -15 18 -22 9 -42 -16 -34 -2 -41 27 -14 l25 23 0
-62 c0 -53 4 -66 22 -81 17 -13 20 -21 12 -31 -15 -19 -14 -49 1 -49 7 0 19
10 28 23 8 12 18 19 22 15 10 -10 -102 -118 -122 -118 -9 0 -13 6 -9 15 3 8 1
15 -5 15 -6 0 -8 -11 -4 -29 4 -20 0 -39 -16 -65 -28 -48 -43 -46 -36 4 4 35
3 40 -14 40 -27 0 -61 -33 -54 -52 5 -12 -6 -20 -41 -32 -60 -20 -124 -20
-172 0 -35 15 -36 16 -18 30 11 8 35 14 53 14 22 0 43 10 66 30 19 17 42 30
51 30 19 0 225 87 240 101 5 5 -4 4 -20 -3 -28 -10 -35 -7 -129 66 -55 41
-131 103 -169 136 -67 58 -115 80 -176 84 -14 0 -31 7 -38 13 -19 18 -33 16
-25 -3 5 -13 2 -15 -13 -10 -14 4 -34 -6 -68 -34 -50 -41 -66 -48 -66 -28 0 7
-6 6 -17 -4 -43 -35 -123 -71 -251 -109 -23 -6 -76 -31 -117 -55 -72 -41 -105
-46 -65 -9 12 11 20 31 20 52 0 18 5 33 10 33 6 0 10 14 10 32 l0 31 26 -24
27 -24 -6 37 c-4 28 -1 40 15 54 14 13 18 26 14 45 -5 29 2 69 14 69 4 0 15
-19 24 -42 15 -37 19 -40 25 -23 5 11 6 26 4 33 -7 18 5 15 29 -8 27 -25 33
-19 20 18 -8 24 -7 31 8 40 14 9 20 8 24 -1 6 -15 56 37 56 59 0 20 20 17 20
-3 1 -10 7 -29 14 -42 11 -19 14 -21 19 -7 4 9 4 23 1 31 -8 21 2 19 27 -6 25
-25 33 -20 20 14 -8 19 -6 28 5 38 23 19 14 72 -13 84 -13 5 -23 13 -23 17 0
11 -37 10 -58 -1 -9 -5 -25 -12 -36 -15 -10 -4 -16 -12 -13 -20 4 -10 -8 -21
-35 -35 -35 -17 -43 -18 -55 -5 -18 17 -12 18 -67 -7 -26 -11 -45 -26 -43 -32
4 -13 -103 -97 -124 -97 -8 0 -20 -4 -28 -9 -12 -8 -12 -12 -2 -25 11 -13 11
-16 1 -16 -20 0 -80 -49 -80 -65 0 -11 7 -11 36 -3 50 13 72 -7 26 -24 -18 -7
-32 -16 -32 -19 0 -4 -16 -13 -35 -19 -27 -9 -34 -16 -30 -29 4 -12 -8 -26
-40 -49 -62 -43 -57 -68 8 -43 13 5 30 5 37 1 12 -7 11 -12 -2 -27 -27 -29
-40 -73 -27 -89 9 -10 1 -19 -34 -40 -44 -27 -74 -61 -63 -72 3 -3 23 0 45 6
21 7 46 9 55 6 16 -6 15 -9 -2 -28 -40 -44 -55 -96 -28 -96 19 0 76 69 76 92
0 31 27 20 34 -13 9 -45 9 -44 -29 -59 -27 -11 -32 -16 -24 -27 9 -10 6 -18
-12 -33 -13 -10 -29 -19 -36 -20 -12 0 -58 -58 -51 -65 2 -2 25 1 52 7 60 13
78 0 47 -33 -24 -26 -35 -58 -29 -84 3 -15 6 -15 30 4 14 12 36 41 48 66 24
50 35 51 44 3 3 -18 13 -46 21 -62 9 -16 12 -32 7 -35 -5 -3 -14 -16 -20 -27
-11 -21 -10 -21 22 -14 19 4 39 10 45 14 6 4 20 2 31 -4 20 -10 20 -10 -1 -31
-11 -11 -24 -31 -29 -44 l-10 -25 -64 24 c-90 34 -106 44 -100 61 4 9 -13 23
-55 45 l-61 31 16 -38 c9 -21 18 -43 21 -49 2 -7 -17 -17 -49 -25 l-53 -12 53
-23 c29 -14 52 -30 52 -39 0 -18 38 -43 104 -70 42 -17 52 -25 56 -50 4 -26
17 -36 100 -77 190 -95 351 -133 561 -132 242 2 433 37 611 114 115 49 158 79
158 108 0 18 13 28 70 53 50 23 72 38 76 54 4 14 23 31 56 46 27 13 46 24 41
26 -4 1 -27 7 -50 13 l-42 10 15 42 c7 22 14 42 14 44 0 3 -23 -7 -50 -21 -27
-14 -50 -31 -50 -39 0 -13 -126 -80 -173 -91 -22 -6 -26 -2 -36 28 -7 20 -18
38 -26 41 -21 8 -19 36 3 36 9 0 34 -5 55 -11 47 -13 55 -7 34 25 -15 22 -15
28 -2 60 8 19 15 44 15 55 0 38 19 31 46 -19 27 -50 68 -87 78 -71 9 14 -12
73 -35 97 l-22 23 25 6 c13 3 36 1 52 -4 36 -14 46 -14 46 2 0 15 -41 57 -56
57 -5 1 -20 10 -33 21 -21 17 -22 22 -11 29 13 8 12 12 -5 24 -11 9 -31 16
-44 16 -21 0 -23 3 -16 37 4 21 9 41 11 45 10 15 24 8 30 -16 3 -13 23 -41 45
-62 l39 -38 0 31 c0 19 -10 44 -27 63 -21 26 -24 33 -12 41 8 5 21 7 29 4 45
-13 70 -16 70 -10 0 19 -24 46 -60 66 -40 23 -48 33 -31 44 9 5 -32 90 -50
100 -5 4 -9 11 -9 17 0 7 17 8 50 4 63 -8 65 4 5 46 -46 33 -53 44 -33 50 6 2
-20 19 -58 37 -57 28 -65 35 -49 41 11 4 33 3 48 -3 15 -5 31 -7 34 -3 9 9
-27 45 -62 64 -17 8 -24 17 -17 19 22 8 13 21 -22 33 -35 11 -157 100 -137
100 26 0 7 18 -41 39 -46 20 -53 21 -63 7 -13 -17 -45 -15 -82 5 -15 8 -20 16
-14 23 7 8 -5 18 -35 33 -38 19 -46 20 -58 7z m-512 -112 c3 -5 -4 -16 -14
-25 -21 -17 -36 -7 -26 18 6 16 32 20 40 7z m636 -19 c0 -25 0 -26 -20 -8 -11
10 -20 22 -20 27 0 4 9 8 20 8 15 0 20 -7 20 -27z m-836 -74 c-7 -12 -44 -12
-44 0 0 5 6 11 13 14 17 6 38 -3 31 -14z m1046 7 c0 -9 -8 -12 -25 -8 -14 2
-25 8 -25 13 0 5 11 9 25 9 14 0 25 -6 25 -14z m-520 -96 c0 -5 -2 -10 -4 -10
-3 0 -8 5 -11 10 -3 6 -1 10 4 10 6 0 11 -4 11 -10z m150 -25 c8 -9 8 -15 2
-15 -18 0 -42 12 -42 21 0 14 26 10 40 -6z m-70 -15 c0 -5 9 -10 20 -10 28 0
25 -14 -5 -30 -22 -12 -28 -12 -41 1 -17 17 -9 49 12 49 8 0 14 -4 14 -10z
m-696 -69 c-2 -2 -10 1 -17 7 -8 7 -17 9 -20 5 -11 -11 -8 17 5 40 11 21 12
21 23 -13 7 -19 11 -37 9 -39z m626 59 c0 -5 -10 -10 -22 -10 -19 0 -20 2 -8
10 19 13 30 13 30 0z m590 -10 c0 -21 -15 -27 -25 -10 -7 12 2 30 16 30 5 0 9
-9 9 -20z m-553 -36 c2 -7 -19 -14 -57 -18 -34 -4 -68 -10 -76 -13 -8 -3 -14
-1 -14 4 0 10 98 42 124 40 11 -1 21 -7 23 -13z m210 -51 c-4 -3 0 -15 10 -25
9 -10 11 -18 5 -18 -6 0 -16 8 -22 18 -11 16 -11 16 -6 -1 8 -24 -12 -41 -46
-44 -46 -3 -37 32 15 56 48 22 53 24 44 14z m-381 -44 l-39 -21 31 -20 c40
-25 40 -35 2 -43 -16 -4 -30 -13 -30 -21 0 -17 -12 -18 -27 -3 -15 15 -44 4
-37 -14 4 -10 -4 -16 -26 -19 -29 -4 -31 -3 -25 20 3 13 9 37 12 54 4 18 11
28 22 27 47 -4 59 1 53 23 -3 14 -1 19 6 14 6 -4 24 0 39 8 16 8 35 15 43 15
8 0 -3 -9 -24 -20z m52 -39 c10 -16 10 -20 0 -20 -22 0 -41 17 -34 29 10 16
20 14 34 -9z m772 -22 c0 -12 -28 -10 -35 2 -4 6 -4 19 0 28 6 16 8 15 21 -2
8 -11 14 -23 14 -28z m-1427 2 c4 -15 0 -20 -14 -20 -10 0 -19 -4 -19 -10 0
-5 -4 -10 -9 -10 -5 0 -3 14 5 30 18 35 30 38 37 10z m367 -21 c-14 -10 -45
-33 -69 -49 -25 -17 -39 -30 -33 -30 6 0 14 -9 17 -20 8 -24 25 -17 25 9 0 35
94 36 105 1 3 -9 34 -32 70 -50 35 -18 74 -43 86 -56 17 -18 26 -21 40 -14 19
10 49 4 49 -11 0 -4 11 -20 25 -35 18 -19 36 -28 63 -29 32 -1 37 -4 34 -24
-2 -20 2 -22 30 -20 38 3 60 -7 76 -36 11 -19 11 -19 12 3 0 26 6 28 28 5 16
-16 17 -16 20 0 4 21 10 21 57 1 28 -12 53 -14 97 -9 l59 7 -6 -38 c-4 -22 -9
-47 -12 -56 -2 -10 0 -18 6 -18 15 0 23 -37 16 -70 -4 -19 -12 -29 -23 -28
-43 3 -66 -2 -55 -13 8 -8 8 -22 -2 -50 -16 -45 -7 -57 22 -29 21 19 21 19 26
-8 4 -20 -2 -35 -24 -60 -36 -40 -39 -66 -3 -27 42 46 94 126 94 146 0 32 17
21 40 -26 12 -25 26 -45 31 -45 5 0 17 -16 26 -35 16 -33 16 -36 -2 -49 -18
-13 -17 -14 14 -21 18 -4 30 -9 27 -13 -3 -3 1 -16 9 -29 9 -13 12 -23 8 -23
-5 0 -17 14 -28 30 -11 16 -24 30 -28 30 -5 0 1 -13 12 -29 12 -16 21 -35 20
-43 0 -10 -2 -10 -6 0 -2 6 -12 12 -21 11 -11 0 -12 -2 -4 -6 20 -8 14 -22 -8
-16 -24 6 -26 21 -5 29 8 4 15 10 15 14 0 5 -11 3 -25 -3 -27 -13 -31 -22 -15
-32 22 -14 10 -33 -20 -31 -24 2 -30 -1 -26 -13 4 -10 1 -9 -7 3 -7 10 -20 28
-30 40 l-18 21 11 -22 c5 -13 15 -32 20 -43 6 -11 8 -20 4 -20 -13 0 -44 22
-44 31 0 6 5 7 10 4 6 -3 10 -1 10 4 0 6 -4 11 -10 11 -13 0 -13 27 0 35 5 3
18 2 27 -4 23 -13 93 23 93 48 0 29 -7 29 -68 1 -81 -39 -249 -83 -270 -70
-14 8 -14 10 -2 10 42 3 99 12 125 19 29 9 29 9 5 11 -15 1 -1 7 35 16 33 8
64 19 70 26 14 15 -71 5 -115 -14 -59 -26 -151 -41 -230 -39 -71 2 -74 1 -53
-14 13 -9 46 -19 75 -22 44 -6 49 -8 28 -14 -34 -10 -298 -11 -304 -1 -2 4 32
16 77 27 72 16 78 19 52 26 -16 3 -25 7 -20 8 26 4 -73 50 -121 56 -52 6 -174
49 -184 65 -3 4 -16 13 -29 20 -21 11 -23 10 -18 -5 4 -9 7 -20 7 -25 0 -5 11
-21 24 -37 23 -27 23 -29 5 -30 -10 -1 -19 4 -19 11 0 8 -6 19 -14 26 -20 15
-24 72 -8 85 10 8 11 17 2 39 -9 25 -8 31 10 43 12 8 25 25 30 37 7 19 14 22
44 18 20 -2 36 -5 36 -7 0 -1 -7 -19 -16 -40 -8 -20 -14 -51 -12 -69 3 -30 5
-31 58 -38 36 -4 60 -2 69 5 11 10 9 13 -10 17 -20 5 -24 12 -23 43 2 62 0 60
204 93 25 4 37 9 28 12 -10 2 -18 11 -18 20 0 21 -61 43 -85 30 -8 -5 -25 -6
-36 -3 -12 4 -24 2 -28 -3 -9 -15 -91 6 -91 24 0 7 -6 11 -14 8 -8 -3 -26 2
-40 11 -14 9 -31 15 -38 12 -12 -4 -62 24 -83 47 -17 18 -72 46 -92 46 -10 0
-29 9 -42 19 -23 17 -23 19 -7 50 9 17 14 36 11 41 -3 5 -1 11 5 15 5 3 10 13
10 21 0 8 11 27 25 42 14 15 25 30 25 34 0 10 2 10 -45 -7 -54 -19 -79 -19
-71 0 3 8 1 15 -4 15 -17 0 -11 15 11 28 25 16 102 25 94 12 -10 -16 48 10
100 44 53 35 77 39 35 5z m525 -8 c3 -5 -1 -15 -8 -23 -8 -7 -12 -19 -9 -26 6
-18 -17 -15 -45 8 l-25 19 34 15 c41 18 45 18 53 7z m-55 -133 c0 -15 -30 -8
-50 12 -16 16 -20 17 -20 5 0 -8 -5 -15 -11 -15 -6 0 -8 7 -5 16 3 8 -5 32
-19 52 -40 59 -30 57 40 -5 36 -32 65 -61 65 -65z m497 -375 c-3 -2 -14 1 -25
8 -21 13 -21 13 1 43 l22 31 3 -39 c2 -21 1 -40 -1 -43z m-1227 10 c-11 -8
-24 -12 -28 -9 -6 4 -8 40 -3 65 1 3 12 -6 26 -19 24 -23 24 -23 5 -37z m110
-119 c14 -35 13 -35 -15 -22 -18 8 -22 15 -15 23 5 7 7 15 3 18 -3 4 -1 7 6 7
6 0 16 -12 21 -26z m-21 -58 c8 -6 32 -15 54 -21 22 -5 42 -16 45 -23 3 -11 0
-12 -16 -3 -11 6 -33 11 -48 11 -26 0 -27 0 -9 -20 10 -11 37 -25 59 -31 34
-10 38 -13 21 -19 -19 -7 -18 -8 6 -18 26 -10 70 -15 123 -13 27 1 28 2 14 19
-27 32 -32 47 -7 26 13 -11 35 -28 48 -37 l24 -16 -29 1 c-16 0 -45 -3 -64 -7
-34 -8 -34 -9 -10 -16 36 -10 162 -10 179 0 10 7 6 11 -17 15 -18 4 -32 15
-35 27 -5 19 -5 19 22 0 15 -11 42 -24 61 -29 29 -8 26 -13 -5 -12 -15 1 -65
-32 -60 -39 3 -5 -3 -7 -12 -5 -10 2 -53 11 -95 20 -43 9 -81 16 -85 16 -9 1
-117 40 -190 70 l-52 21 15 29 c8 16 12 33 9 38 -8 13 17 39 30 32 6 -3 16
-10 24 -16z m61 -171 c36 8 44 -19 18 -60 -16 -24 -18 -25 -14 -7 15 56 14 64
-2 30 -18 -40 -31 -49 -28 -20 0 9 -5 16 -11 14 -7 -1 -13 3 -13 9 0 6 9 9 20
6 11 -3 20 -1 20 4 0 18 -38 8 -54 -14 l-17 -22 7 24 c5 19 3 23 -10 18 -9 -4
-16 -1 -16 5 0 7 -4 7 -13 -1 -23 -18 -51 10 -43 42 l6 27 61 -31 c44 -22 69
-28 89 -24z m886 -58 c1 -17 -1 -27 -3 -21 -2 7 -12 10 -22 7 -12 -3 -20 2
-24 16 -5 19 5 26 38 30 6 0 10 -14 11 -32z m-757 8 c89 -23 150 -28 166 -15
15 12 55 5 55 -11 0 -5 11 -9 24 -9 14 0 28 -5 31 -10 3 -6 16 -10 28 -9 20 1
20 2 -3 9 -23 7 -22 8 11 9 34 1 35 0 31 -29 -4 -26 -8 -30 -26 -24 -11 4 -23
10 -26 14 -3 4 -13 7 -22 7 -15 0 -15 -3 -5 -15 10 -12 9 -14 -3 -10 -8 2 -17
15 -21 29 -7 24 -7 24 -8 -3 -1 -25 -21 -42 -21 -18 0 6 -7 10 -16 10 -10 0
-14 6 -10 15 3 8 1 15 -4 15 -6 0 -10 -10 -10 -22 0 -24 -20 -63 -20 -40 0 6
-5 12 -11 12 -5 0 -7 -4 -4 -10 3 -5 1 -10 -5 -10 -8 0 -10 9 -6 25 5 18 2 25
-8 25 -9 0 -13 6 -10 13 3 8 -2 14 -11 14 -9 0 -15 -9 -15 -24 0 -12 -5 -23
-11 -23 -6 0 -8 8 -4 19 3 12 1 19 -7 18 -36 -1 -58 4 -58 14 0 7 10 9 26 5
17 -5 23 -3 19 4 -3 5 -17 10 -30 10 -17 0 -25 -7 -30 -27 -4 -16 -10 -22 -12
-15 -3 6 -13 12 -24 12 -11 0 -19 7 -19 18 0 14 2 14 9 3 8 -12 12 -12 26 2
15 16 15 17 -4 17 -11 0 -23 5 -26 10 -8 13 -3 13 64 -5z m666 7 c6 -4 11 -23
12 -42 1 -19 0 -29 -3 -22 -3 6 -12 12 -19 12 -8 0 -19 8 -25 18 -9 14 -10 10
-6 -18 l6 -35 -15 30 c-8 17 -14 24 -15 18 0 -7 -7 -13 -16 -13 -8 0 -13 -4
-9 -10 3 -5 12 -7 20 -3 8 3 15 0 15 -6 0 -15 -33 -14 -48 1 -9 9 -12 8 -13
-7 0 -16 -4 -13 -15 10 l-15 30 4 -27 c2 -16 0 -28 -4 -28 -5 0 -9 12 -10 28
l-1 27 -7 -25 c-7 -24 -7 -24 -19 -5 -11 19 -11 18 -12 -7 0 -25 -2 -27 -26
-18 -34 13 -47 13 -38 -2 4 -7 -2 -4 -15 6 -15 14 -18 22 -10 27 8 5 6 8 -7
11 -10 2 0 6 24 9 35 4 40 2 27 -7 -10 -8 -12 -15 -6 -18 6 -4 16 2 23 14 9
14 23 20 50 20 23 0 37 4 36 11 -2 6 3 14 10 16 7 3 10 -1 6 -10 -4 -11 1 -13
23 -9 15 3 32 11 36 18 9 15 46 18 62 6z"/>
<path d="M1100 500 c0 -5 5 -10 10 -10 6 0 10 5 10 10 0 6 -4 10 -10 10 -5 0
-10 -4 -10 -10z"/>
<path d="M1452 373 c-7 -12 -12 -30 -12 -40 1 -13 5 -11 16 10 8 16 13 34 11
40 -2 7 -9 3 -15 -10z"/>
<path d="M1455 304 c-16 -8 -34 -20 -40 -26 -16 -17 40 -1 78 22 25 16 28 20
12 20 -11 0 -33 -7 -50 -16z"/>
<path d="M1283 287 c-46 -34 -67 -57 -51 -57 17 0 95 66 87 74 -3 3 -19 -4
-36 -17z"/>
<path d="M1116 242 c-39 -21 -45 -28 -28 -30 20 -3 132 42 132 53 0 14 -61 1
-104 -23z"/>
<path d="M1490 170 c0 -19 3 -21 12 -12 9 9 9 15 0 24 -9 9 -12 7 -12 -12z"/>
<path d="M1465 170 c-3 -5 -1 -10 4 -10 6 0 11 5 11 10 0 6 -2 10 -4 10 -3 0
-8 -4 -11 -10z"/>
<path d="M371 203 c0 -10 3 -13 5 -6 3 7 13 9 22 6 15 -4 15 -3 2 6 -22 15
-30 14 -29 -6z"/>
<path d="M428 188 c5 -5 16 -8 23 -6 8 3 3 7 -10 11 -17 4 -21 3 -13 -5z"/>
<path d="M828 113 c7 -3 16 -2 19 1 4 3 -2 6 -13 5 -11 0 -14 -3 -6 -6z"/>
<path d="M795 79 c-4 -12 -2 -26 4 -32 8 -8 11 -2 11 21 0 37 -6 41 -15 11z"/>
<path d="M1282 134 c10 -3 15 -11 11 -20 -3 -8 0 -14 7 -14 20 0 6 35 -15 37
-15 1 -15 0 -3 -3z"/>
<path d="M1090 70 c0 -5 5 -10 10 -10 6 0 10 5 10 10 0 6 -4 10 -10 10 -5 0
-10 -4 -10 -10z"/>
<path d="M930 1360 c-9 -6 -10 -10 -3 -10 6 0 15 5 18 10 8 12 4 12 -15 0z"/>
<path d="M1293 933 c-16 -3 -23 -11 -23 -29 0 -31 2 -30 28 6 13 17 21 29 20
29 -2 -1 -13 -4 -25 -6z"/>
</g>
</svg>
