<svg xmlns="http://www.w3.org/2000/svg" width="512" height="512" viewBox="0 0 512 512" version="1.1"><path d="M 20.942 0.944 C 13.155 3.320, 4.841 11.135, 1.988 18.762 C 0.025 24.008, -0 26.993, -0 256 C -0 485.007, 0.025 487.992, 1.988 493.238 C 4.143 498.999, 10.941 506.427, 17 509.642 C 20.382 511.437, 28.443 511.500, 256 511.500 L 491.500 511.500 495.525 509.345 C 501.019 506.402, 508.447 498.232, 509.979 493.444 C 510.673 491.275, 511.637 489.072, 512.121 488.550 C 513.258 487.321, 513.286 21.705, 512.148 22.408 C 511.680 22.698, 510.745 21.092, 510.071 18.841 C 508.606 13.953, 501.171 5.679, 495.525 2.655 L 491.500 0.500 257.500 0.332 C 128.800 0.239, 22.349 0.515, 20.942 0.944 M 256.500 11.156 C 249.720 16.484, 232.959 24.608, 224.953 26.446 C 213.496 29.077, 191.244 30.767, 166.095 30.916 C 141.613 31.061, 135.495 31.688, 129.648 34.648 C 124.987 37.007, 123.610 38.408, 113.490 51.088 C 108.403 57.461, 99.222 68.422, 93.087 75.445 C 85.574 84.047, 82.231 88.587, 82.846 89.357 C 93.834 103.106, 103.426 120.885, 106.934 134 C 109.869 144.972, 111.328 159.174, 110.569 169.381 C 109.709 180.948, 107.885 190.339, 102.002 213.500 C 96.246 236.160, 94.517 246.079, 92.502 268 C 90.286 292.106, 90.167 293.167, 89.608 293.726 C 89.005 294.329, 89.196 295.120, 83.533 268.677 C 79.093 247.948, 77.184 242.767, 73.057 240.242 C 70.442 238.642, 70.470 239.100, 73.539 248.075 C 74.936 252.159, 77.408 263.600, 79.033 273.500 C 80.659 283.400, 82.894 295.255, 84.002 299.844 C 86.827 311.553, 93.205 327.359, 98.991 336.985 C 114.490 362.773, 131.349 375.794, 194.500 410.750 C 251.035 442.043, 258.517 446, 261.160 446 C 265.559 446, 371.431 386.295, 388.894 373.966 C 410.420 358.768, 426.365 337.245, 434.522 312.372 C 436.723 305.661, 450.061 242.832, 449.968 239.609 C 449.923 238.041, 447.261 241.680, 444.459 247.140 C 441.917 252.093, 440.302 258.202, 437.076 275.063 C 435.964 280.872, 434.263 287.397, 433.296 289.563 L 431.538 293.500 430.872 278.500 C 430.179 262.883, 428.937 255.847, 418.605 209 C 412.878 183.032, 411.607 172.615, 412.325 157.500 C 413.371 135.475, 420.304 116.058, 433.926 97.003 C 437.267 92.330, 439.989 88.280, 439.976 88.003 C 439.963 87.727, 434.079 80.763, 426.900 72.529 C 419.720 64.295, 410.666 53.382, 406.779 48.277 C 398.849 37.865, 393.280 33.593, 385.655 32.073 C 382.820 31.508, 366.325 30.830, 349 30.568 C 317.094 30.084, 305.927 29.200, 296.025 26.375 C 287.762 24.018, 276.710 18.457, 269.617 13.089 C 266.128 10.447, 262.874 8.048, 262.386 7.757 C 261.899 7.466, 259.250 8.995, 256.500 11.156 M 250.198 22.982 C 238.394 29.158, 226.763 33.366, 213.750 36.172 C 204.673 38.128, 199.512 38.445, 168.634 38.941 L 133.767 39.500 129.736 44 C 127.519 46.475, 118.138 57.433, 108.890 68.351 L 92.075 88.201 96.905 95.359 C 110.318 115.237, 116.630 134.116, 117.718 157.620 C 118.457 173.574, 117.100 183.809, 109.976 216 C 99.607 262.856, 97.392 278.886, 99.050 295.072 C 100.462 308.851, 103.391 319.095, 109.465 331.500 C 118.114 349.165, 130.222 362.600, 149.526 375.950 C 163.240 385.435, 257.685 437, 261.343 437 C 265.121 437, 353.359 387.482, 374.740 373.363 C 406.198 352.590, 420.279 329.412, 422.952 294 C 424.564 272.654, 421.158 245.648, 413.116 215.993 C 410.952 208.015, 408.460 197.993, 407.578 193.722 C 399.952 156.804, 405.902 124.179, 425.476 95.588 C 428.024 91.867, 429.971 88.456, 429.804 88.008 C 428.984 85.809, 391.488 42.279, 389.171 40.837 C 386.896 39.421, 380.946 39.013, 349 38.083 C 311.475 36.990, 300.690 35.948, 289.500 32.335 C 283.433 30.376, 273.108 25.202, 267 21.060 C 264.525 19.382, 261.825 18.033, 261 18.062 C 260.175 18.091, 255.314 20.305, 250.198 22.982 M 0.492 256 C 0.492 384.425, 0.608 436.962, 0.750 372.750 C 0.892 308.537, 0.892 203.462, 0.750 139.250 C 0.608 75.037, 0.492 127.575, 0.492 256 M 257.999 28.730 C 248.922 35.178, 231.315 41.503, 214.236 44.451 C 194.826 47.801, 160.522 48.746, 143.494 46.398 L 139.488 45.846 121.271 66.905 L 103.053 87.964 107.850 94.302 C 114.822 103.513, 118.497 110.379, 121.882 120.521 C 131.650 149.790, 129.351 190.343, 115.504 233 C 96.287 292.199, 110.560 345.204, 151.500 366.679 C 155.350 368.698, 161.425 372.137, 165 374.320 C 181.179 384.199, 260.108 428, 261.732 428 C 262.221 428, 268.669 424.697, 276.060 420.660 C 283.452 416.623, 302.898 406.269, 319.273 397.652 C 367.760 372.137, 382.432 361.806, 398.313 342 C 405.361 333.211, 409.217 325.247, 412.254 313.209 C 414.170 305.618, 414.452 301.805, 414.459 283.500 C 414.468 256.508, 411.467 236.453, 402.952 206.602 C 398.290 190.261, 396.851 180.021, 396.825 163 C 396.782 135.876, 403.206 113.496, 416.541 94.317 L 420.839 88.134 402.300 67.067 L 383.761 46 369.631 45.991 C 316.488 45.957, 273.154 38.823, 263.622 28.537 L 261.497 26.244 257.999 28.730 M 255.297 82.750 C 255.473 96.849, 255.295 99.001, 253.950 99 C 252.781 99, 251.568 95.499, 249.015 84.750 C 245.908 71.665, 243.138 63.048, 244.435 70.500 C 245.958 79.246, 248.034 98.469, 247.583 99.644 C 246.391 102.752, 244.937 100.224, 239.451 85.496 C 236.274 76.969, 233.548 70.118, 233.394 70.273 C 233.239 70.427, 234.859 77.493, 236.994 85.974 C 239.128 94.456, 240.651 101.756, 240.378 102.197 C 239.106 104.256, 237.526 102.026, 230.947 88.893 C 227.060 81.135, 223.703 74.964, 223.487 75.180 C 223.271 75.396, 225.551 82.007, 228.554 89.870 C 233.591 103.060, 234.234 106, 232.081 106 C 231.641 106, 227.540 100.354, 222.969 93.453 C 218.398 86.553, 214.227 80.640, 213.699 80.314 C 212.799 79.758, 225.317 104.206, 227.167 106.617 C 227.678 107.282, 227.485 108.183, 226.690 108.842 C 225.642 109.712, 223.036 107.275, 214.538 97.475 C 208.588 90.614, 203.546 85, 203.334 85 C 203.122 85, 207.103 91.073, 212.180 98.495 C 224.839 117.002, 223.390 117.964, 206.413 102.325 C 199.353 95.821, 193.988 91.175, 194.490 92 C 194.992 92.825, 200.108 98.807, 205.858 105.293 C 213.092 113.453, 215.993 117.407, 215.274 118.126 C 214.305 119.095, 211.336 117.182, 189 101.202 C 187.075 99.825, 188.875 101.797, 193 105.584 C 209.989 121.180, 211.565 122.846, 209.927 123.474 C 208.604 123.982, 190.686 114.772, 182.268 109.256 C 181.021 108.439, 180 108.023, 180 108.333 C 180 108.643, 186.087 113.218, 193.527 118.501 C 205.425 126.949, 208.435 130, 204.873 130 C 204.318 130, 197.507 127.312, 189.737 124.028 C 181.968 120.743, 175.459 118.207, 175.273 118.393 C 175.088 118.579, 181.081 122.054, 188.592 126.115 C 200.878 132.759, 204.165 135.168, 202.803 136.531 C 202.558 136.775, 195.425 134.984, 186.950 132.550 C 178.475 130.116, 171.412 128.255, 171.253 128.414 C 171.094 128.573, 177.385 131.312, 185.232 134.501 C 193.079 137.691, 199.928 140.683, 200.450 141.150 C 203.215 143.624, 198.254 143.563, 183.533 140.943 C 174.751 139.379, 167.386 138.281, 167.165 138.502 C 166.945 138.722, 168.055 139.221, 169.632 139.610 C 184.399 143.253, 198.500 147.888, 198.500 149.099 C 198.500 149.957, 197.530 150.457, 196 150.388 C 194.625 150.327, 186.975 150.020, 179 149.707 L 164.500 149.138 181 151.993 C 190.075 153.563, 197.613 154.882, 197.750 154.924 C 197.887 154.966, 198 155.607, 198 156.349 C 198 157.746, 186.732 158.901, 171.500 159.065 C 161.668 159.171, 166.117 160.836, 176.500 160.937 C 189.686 161.064, 198 162.112, 198 163.645 C 198 164.390, 197.724 165, 197.386 165 C 195.917 165, 166.402 170.108, 165.500 170.519 C 164.512 170.968, 171.724 170.640, 189.750 169.416 C 197.673 168.878, 199 169.008, 199 170.323 C 199 171.337, 197.049 172.408, 193.250 173.480 C 190.088 174.372, 187.050 175.268, 186.500 175.472 C 185.609 175.802, 189.812 176.180, 197 176.418 C 198.375 176.463, 200.475 177.475, 201.666 178.666 C 202.857 179.857, 208.707 183.343, 214.666 186.411 C 220.953 189.649, 229.382 195.126, 234.750 199.462 C 239.838 203.572, 244 206.549, 244 206.079 C 244 203.775, 228.744 183.286, 216.337 168.927 C 205.519 156.408, 203.832 154.196, 206.095 155.501 C 208.270 156.754, 215.955 162.893, 221.664 167.937 C 224.505 170.447, 228.247 173.572, 229.981 174.881 C 231.715 176.191, 234.866 179.566, 236.983 182.381 C 243.471 191.007, 256.009 211.177, 255.448 212.085 C 255.157 212.556, 255.612 214.282, 256.459 215.921 C 257.307 217.560, 258 220.021, 258 221.391 C 258 222.761, 258.450 224.160, 259 224.500 C 259.567 224.851, 260 224.010, 260 222.559 C 260 217.663, 261.860 220.037, 262.501 225.750 C 263.374 233.547, 264.131 235.260, 265.039 231.500 C 265.437 229.850, 265.817 226.588, 265.882 224.250 C 265.964 221.302, 266.435 220, 267.419 220 C 268.222 220, 271.692 214.534, 275.405 207.420 C 282.287 194.236, 300.905 164.699, 304.145 161.827 C 307.482 158.868, 321.033 155.241, 339.500 152.365 C 349.400 150.822, 356.799 149.418, 355.943 149.244 C 355.086 149.070, 347.661 149.340, 339.443 149.844 C 328.738 150.501, 324.303 150.449, 323.804 149.660 C 323.422 149.054, 323.244 148.423, 323.409 148.258 C 323.710 147.956, 343.749 142.148, 351.851 140.015 C 360.292 137.791, 355.281 138.166, 338.984 140.976 C 329.918 142.540, 322.332 143.654, 322.126 143.453 C 320.684 142.037, 324.648 139.747, 337.421 134.617 C 345.477 131.382, 351.914 128.581, 351.726 128.392 C 351.537 128.204, 344.494 130.057, 336.073 132.511 C 321.919 136.635, 319 137.088, 319 135.160 C 319 134.763, 325.525 130.889, 333.499 126.552 C 341.474 122.214, 347.866 118.533, 347.704 118.371 C 347.542 118.208, 340.680 120.919, 332.455 124.393 C 318.916 130.112, 314.570 131.123, 316.426 128.119 C 316.785 127.539, 322.911 122.956, 330.039 117.934 C 342.333 109.275, 346.846 105.500, 339.750 109.812 C 325.825 118.272, 312.859 124.796, 312.391 123.577 C 311.886 122.261, 315.979 118.056, 328.500 107.025 C 340.931 96.073, 339.926 96.481, 321.732 109.771 C 312.393 116.593, 308.507 118.907, 307.718 118.118 C 306.929 117.329, 307.173 116.399, 308.597 114.763 C 309.680 113.518, 314.156 108.450, 318.543 103.500 C 330.517 89.989, 330.511 89.577, 318.495 100.447 C 302.254 115.139, 303.087 114.487, 301.973 113.373 C 301.305 112.705, 302.347 110.397, 305.104 106.436 C 307.377 103.171, 311.668 97.013, 314.640 92.750 C 317.613 88.488, 319.864 85, 319.642 85 C 319.308 85, 304.185 101.993, 299 108.194 C 298.012 109.376, 297.037 109.692, 296.145 109.120 C 295.012 108.394, 295.030 107.861, 296.256 105.876 C 298.908 101.581, 311.256 77.477, 310.279 78.500 C 309.754 79.050, 305.363 85.350, 300.520 92.500 C 295.677 99.650, 291.546 105.695, 291.341 105.933 C 291.135 106.172, 290.469 105.869, 289.860 105.260 C 289.051 104.451, 290.266 100.284, 294.377 89.772 C 297.469 81.863, 299.990 74.966, 299.979 74.446 C 299.967 73.926, 296.581 79.999, 292.453 87.942 C 288.326 95.886, 284.728 102.606, 284.458 102.876 C 284.188 103.146, 283.501 102.901, 282.933 102.333 C 282.060 101.460, 286.279 81.741, 289.553 71.391 C 291.524 65.159, 287.508 74.387, 282.976 86.500 C 280.096 94.200, 277.565 100.695, 277.353 100.933 C 277.140 101.172, 276.464 100.864, 275.850 100.250 C 275.027 99.427, 275.183 95.491, 276.440 85.316 C 277.379 77.717, 278.402 70.375, 278.714 69 C 279.026 67.625, 278.974 66.781, 278.599 67.125 C 278.223 67.469, 276.098 74.660, 273.875 83.105 C 271.653 91.550, 269.632 98.786, 269.385 99.186 C 269.138 99.586, 268.275 99.659, 267.468 99.349 C 266.264 98.887, 266 95.984, 266 83.226 C 266 74.669, 265.767 67.900, 265.483 68.184 C 265.198 68.469, 264.331 75.336, 263.555 83.445 C 262.780 91.554, 261.863 98.470, 261.518 98.815 C 260.151 100.182, 259.197 96.240, 257.968 84.146 C 256.030 65.062, 255.070 64.561, 255.297 82.750 M 315.582 165.211 C 306.004 176.890, 288.552 200.395, 290.228 199.359 C 290.919 198.932, 296.809 194.402, 303.317 189.291 C 309.826 184.181, 316.017 180, 317.075 180 C 318.134 180, 319.929 179.071, 321.065 177.935 C 322.521 176.479, 323.922 176.029, 325.815 176.409 C 327.292 176.706, 330.075 176.585, 332 176.141 L 335.500 175.332 329.250 173.534 C 323.234 171.804, 321.905 170.795, 323.966 169.521 C 324.497 169.193, 332.228 169.385, 341.146 169.948 C 350.064 170.512, 357.512 170.821, 357.698 170.636 C 357.883 170.450, 350.377 169.041, 341.017 167.503 C 322.238 164.418, 319.285 162.735, 330.750 161.652 C 334.462 161.301, 341.100 160.966, 345.500 160.907 C 360.704 160.704, 358.681 159.376, 342.055 158.645 C 333.011 158.247, 325.068 157.472, 324.405 156.922 C 323.529 156.194, 321.121 158.456, 315.582 165.211 M 337.052 176.942 C 335.455 177.958, 335.678 178.031, 346.500 180.030 C 349.800 180.639, 353.400 181.353, 354.500 181.617 C 359.602 182.838, 352.996 180.052, 347.282 178.572 C 343.862 177.687, 340.487 176.750, 339.782 176.491 C 339.077 176.233, 337.848 176.435, 337.052 176.942 M 173.832 178.868 C 170.714 179.766, 167.789 180.893, 167.332 181.374 C 166.863 181.866, 167.374 182.001, 168.500 181.681 C 169.600 181.369, 173.304 180.581, 176.731 179.931 C 180.158 179.280, 182.719 178.354, 182.422 177.874 C 181.734 176.761, 180.757 176.874, 173.832 178.868 M 326.154 182.884 C 324.100 184.185, 330.482 186.135, 333.278 185.061 C 335.463 184.220, 335.453 184.188, 332.685 183.103 C 329.331 181.789, 327.954 181.743, 326.154 182.884 M 179.770 187.305 C 174.419 189.543, 170.200 191.533, 170.395 191.728 C 170.590 191.923, 176.007 190.489, 182.433 188.541 C 188.859 186.594, 194.428 184.993, 194.808 184.985 C 195.189 184.976, 194.825 184.533, 194 184 C 191.756 182.550, 190.375 182.870, 179.770 187.305 M 335.291 185.794 C 334.566 186.258, 337.717 187.674, 343.160 189.331 C 348.153 190.851, 352.413 191.921, 352.625 191.708 C 352.838 191.495, 349.972 190.140, 346.256 188.698 C 336.549 184.929, 336.617 184.946, 335.291 185.794 M 186.941 194.552 C 179.548 198.632, 173.778 201.977, 174.119 201.985 C 174.859 202.003, 203.213 190.121, 203.778 189.555 C 203.994 189.339, 203.319 188.706, 202.277 188.148 C 200.742 187.327, 197.826 188.545, 186.941 194.552 M 319.250 187.662 C 318.563 187.940, 318 188.579, 318 189.083 C 318 190.230, 322.044 190.258, 323.834 189.124 C 326.004 187.748, 322.112 186.507, 319.250 187.662 M 324.521 190.361 C 323.031 191.451, 323.727 191.969, 329.962 194.416 C 333.895 195.959, 337.387 196.946, 337.723 196.610 C 338.478 195.855, 338.674 196.001, 331.864 192.232 C 327.149 189.622, 325.950 189.316, 324.521 190.361 M 195.446 199.804 C 188.817 204.587, 182.292 209.304, 180.946 210.288 C 178.349 212.186, 185.713 208.350, 200.495 200.106 C 206.569 196.719, 209.816 195.420, 210.495 196.106 C 211.512 197.135, 210.836 197.854, 197.655 209.750 C 194.456 212.637, 192.354 215, 192.983 215 C 193.612 215, 198.626 211.788, 204.125 207.862 C 211.254 202.772, 214.432 201.032, 215.198 201.798 C 215.965 202.565, 214.656 204.685, 210.637 209.186 C 206.417 213.915, 205.409 215.587, 206.622 215.847 C 207.545 216.044, 210.519 213.944, 213.541 210.959 C 217.175 207.371, 219.355 205.922, 220.476 206.352 C 221.885 206.893, 221.690 207.591, 219.063 211.409 C 215.181 217.051, 217.031 218.160, 222.160 213.264 C 226.464 209.155, 228.780 209.591, 226.461 214.075 C 225.058 216.789, 225.073 217.091, 226.643 217.693 C 227.784 218.131, 228.837 217.625, 229.800 216.175 C 231.822 213.129, 234.398 213.278, 233.616 216.396 C 232.551 220.638, 236.810 220.799, 238.293 216.573 C 238.911 214.811, 241.173 217.232, 240.677 219.126 C 240.366 220.316, 240.869 221.395, 242.023 222.012 C 243.498 222.802, 244 222.577, 244.537 220.883 C 246.070 216.052, 223.051 197.421, 208 191.311 C 207.725 191.200, 202.076 195.022, 195.446 199.804 M 308.750 195.079 C 302.673 199.390, 300.722 201.704, 306.250 198.045 C 308.038 196.862, 310.962 195.159, 312.750 194.262 C 314.538 193.364, 316 192.263, 316 191.815 C 316 190.315, 314.537 190.973, 308.750 195.079 M 315.553 194.915 C 314.806 196.122, 321.147 200, 323.868 200 C 326.915 200, 326.490 198.834, 322.502 196.250 C 318.817 193.863, 316.480 193.414, 315.553 194.915 M 303.912 201.805 C 299.835 204.473, 295.882 207.408, 295.128 208.328 C 294.373 209.247, 293.290 210, 292.723 210 C 292.155 210, 292.547 209.015, 293.595 207.811 L 295.500 205.622 292.500 207.724 C 290.850 208.880, 287.926 211.553, 286.001 213.663 L 282.503 217.500 286.543 213.750 C 292.007 208.680, 293.371 208.981, 288.453 214.171 L 284.500 218.343 289 214.838 C 291.475 212.911, 294.980 210.747, 296.788 210.030 C 298.597 209.313, 300.551 207.839, 301.131 206.755 C 301.874 205.367, 302.498 205.098, 303.246 205.846 C 303.976 206.576, 304.902 206.588, 306.218 205.883 C 307.733 205.073, 307.885 204.566, 306.952 203.442 C 306.023 202.323, 306.129 201.888, 307.455 201.379 C 308.379 201.025, 309.644 201.244, 310.267 201.867 C 311.601 203.201, 314.656 203.366, 315.410 202.145 C 315.701 201.675, 314.900 200.315, 313.631 199.123 L 311.324 196.956 303.912 201.805 M 342 198.755 C 342 199.199, 343.350 200.071, 345 200.694 C 346.650 201.317, 348 201.652, 348 201.439 C 348 201.226, 346.650 200.353, 345 199.500 C 343.350 198.647, 342 198.312, 342 198.755 M 317.095 204.941 C 316.376 205.386, 316.194 206.002, 316.691 206.309 C 317.188 206.616, 318.185 206.504, 318.905 206.059 C 319.624 205.614, 319.806 204.998, 319.309 204.691 C 318.812 204.384, 317.815 204.496, 317.095 204.941 M 308.653 207.911 C 307.114 208.480, 307.036 208.785, 308.187 209.740 C 309.054 210.460, 310.109 210.550, 311.025 209.984 C 313.025 208.748, 311.052 207.023, 308.653 207.911 M 335.083 207.377 C 336.023 208.228, 344 212.007, 344 211.602 C 344 210.830, 337.313 207, 335.965 207 C 335.251 207, 334.854 207.170, 335.083 207.377 M 300.975 211.016 C 298.824 212.345, 301.230 214.530, 303.467 213.279 C 304.839 212.511, 304.893 212.156, 303.780 211.232 C 302.938 210.534, 301.886 210.452, 300.975 211.016 M 325.500 212.535 C 327.150 213.889, 330.525 216.385, 333 218.080 C 337.169 220.935, 337.059 220.753, 331.500 215.605 C 328.200 212.549, 324.825 210.054, 324 210.060 C 323.066 210.068, 323.631 211.001, 325.500 212.535 M 313.635 213.781 C 313.370 214.210, 315.593 216.713, 318.576 219.343 C 321.559 221.973, 324 223.822, 324 223.451 C 324 222.372, 315.899 213, 314.966 213 C 314.500 213, 313.901 213.351, 313.635 213.781 M 293.500 215 C 293.160 215.550, 293.148 216.430, 293.473 216.956 C 294.296 218.287, 297 217.089, 297 215.393 C 297 213.794, 294.424 213.505, 293.500 215 M 304.627 216.795 C 304.037 217.750, 310.995 225.338, 311.760 224.574 C 312.470 223.863, 307.229 216, 306.045 216 C 305.535 216, 304.897 216.358, 304.627 216.795 M 296.601 219.837 C 295.840 221.068, 298.873 225, 300.582 225 C 301.856 225, 301.845 224.601, 300.500 222 C 298.954 219.009, 297.582 218.249, 296.601 219.837 M 289.306 222.644 C 287.748 223.278, 288.803 226, 290.607 226 C 291.373 226, 292 225.100, 292 224 C 292 221.990, 291.514 221.746, 289.306 222.644 M 281.667 226.667 C 280.452 227.881, 280.976 228.947, 282.500 228.362 C 283.325 228.045, 284 227.384, 284 226.893 C 284 225.845, 282.622 225.711, 281.667 226.667 M 54.234 240.113 C 48.720 242.843, 46.392 245.898, 45.551 251.510 C 44.511 258.443, 47.066 265.924, 51.995 270.376 C 54.201 272.369, 56.364 274, 56.802 274 C 57.240 274, 57.415 272.426, 57.190 270.503 C 56.261 262.541, 59.714 258.680, 67.622 258.839 L 72.210 258.931 71.552 255.216 C 70.465 249.070, 66.125 241.116, 62.968 239.483 C 59.321 237.597, 59.316 237.598, 54.234 240.113 M 456.912 243.094 C 454.559 245.613, 450 256.736, 450 259.959 C 450 260.370, 452.168 260.498, 454.817 260.244 C 458.882 259.853, 460.080 260.165, 462.497 262.244 C 465.071 264.458, 465.346 265.284, 465.211 270.400 L 465.062 276.092 467.781 274.154 C 474.058 269.679, 477 263.881, 477 255.982 C 477 249.632, 475.220 246.118, 470.266 242.684 C 464.930 238.986, 460.626 239.118, 456.912 243.094 M 29.210 280.315 C 21.191 296.877, 19.926 300.187, 19.960 304.527 C 19.982 307.318, 20.668 310.509, 21.501 311.698 C 23.336 314.318, 27.768 315.419, 31.211 314.110 C 32.618 313.575, 39.715 306.267, 46.981 297.871 L 60.192 282.604 55.285 281.004 C 52.585 280.124, 48.932 278.376, 47.166 277.118 C 43.520 274.522, 40.012 268.332, 39.706 263.956 C 39.593 262.332, 39.275 261.032, 39 261.067 C 38.725 261.101, 34.320 269.763, 29.210 280.315 M 62.577 262.915 C 60.891 264.778, 60.954 264.816, 64.861 264.292 C 68.591 263.792, 69.027 263.995, 70.936 267.126 C 72.913 270.370, 72.993 270.403, 72.996 267.973 C 73.005 261.881, 66.410 258.680, 62.577 262.915 M 452.695 263.111 C 450.211 264.556, 448.736 268.725, 449.964 270.829 C 450.820 272.296, 450.943 272.245, 450.970 270.405 C 451.030 266.219, 456.984 263.384, 459.800 266.200 C 460.667 267.067, 461 267.083, 461 266.257 C 461 264.979, 457.121 261.983, 455.527 262.030 C 454.962 262.047, 453.688 262.533, 452.695 263.111 M 483.077 264.185 C 482.970 267.914, 481.265 272.066, 478.683 274.882 C 475.961 277.852, 469.390 280.949, 465.750 280.978 C 464.238 280.990, 463 281.247, 463 281.548 C 463 281.850, 468.908 288.937, 476.130 297.298 C 491.782 315.420, 496.352 318.164, 501.030 312.250 C 502.784 310.032, 503.101 308.630, 502.671 305 C 501.994 299.295, 483.193 260.131, 483.077 264.185 M 63.212 269.188 C 61.474 270.926, 61.718 273.678, 63.678 274.430 C 66.127 275.370, 68.769 272.442, 67.412 270.291 C 66.007 268.064, 64.684 267.716, 63.212 269.188 M 455.105 271.373 C 453.462 273.353, 454.832 276, 457.500 276 C 458.757 276, 460.067 275.268, 460.410 274.373 C 461.111 272.548, 459.415 270, 457.500 270 C 456.810 270, 455.732 270.618, 455.105 271.373 M 59 291.548 C 42.277 310.570, 42.726 309.248, 47.482 325.500 C 56.646 356.816, 74.944 383.944, 101.089 404.974 C 118.993 419.375, 124.788 422.839, 217.129 474.340 C 246.800 490.888, 258.634 497, 261.005 497 C 267.474 497, 373.368 436.906, 407.973 413.596 C 444.977 388.671, 464.629 362.115, 475.613 322.190 C 479.436 308.296, 481.337 311.955, 454.572 281.700 C 451.312 278.015, 448.367 275, 448.028 275 C 447.689 275, 446.390 280.288, 445.142 286.750 C 438.630 320.456, 429.061 341.096, 412.076 358.072 C 393.340 376.799, 373.131 390.396, 322 418.677 C 276.297 443.955, 264.508 450, 260.911 450 C 258.654 450, 254.284 448.207, 248 444.703 C 242.775 441.790, 224.100 431.387, 206.500 421.585 C 139.394 384.211, 129.045 377.720, 115.753 364.661 C 95.347 344.615, 84.038 322.214, 77.431 288.750 C 75.937 281.188, 74.442 275.013, 74.108 275.028 C 73.773 275.043, 66.975 282.477, 59 291.548 M 240.985 285.250 C 235.299 288.132, 232.598 292.702, 232.698 299.274 C 232.818 307.247, 238.375 312.980, 246.676 313.695 C 259.012 314.758, 267.040 302.186, 261.176 290.984 C 259.177 287.165, 252.303 283, 248 283 C 246.583 283, 243.426 284.012, 240.985 285.250 M 150.223 298.688 L 150.500 313.500 153.250 313.816 L 156 314.133 156.006 303.816 L 156.012 293.500 161.319 302.172 C 168.223 313.455, 168.721 314, 172.122 314 L 175 314 175 299 L 175 284 171.931 284 L 168.863 284 169.181 293.502 C 169.357 298.728, 169.275 302.992, 169 302.977 C 168.725 302.962, 165.993 298.799, 162.928 293.725 C 157.653 284.992, 157.158 284.483, 153.651 284.188 L 149.946 283.876 150.223 298.688 M 189 284.231 C 189 284.424, 186.750 290.801, 184 298.401 C 181.250 306.001, 179 312.620, 179 313.110 C 179 313.599, 180.315 314, 181.922 314 C 184.376 314, 185.030 313.438, 186 310.500 C 187.131 307.074, 187.269 307, 192.564 307 C 197.801 307, 198.020 307.112, 199.436 310.500 C 200.654 313.416, 201.407 314, 203.949 314 C 205.627 314, 206.993 313.887, 206.984 313.750 C 206.975 313.613, 204.610 306.975, 201.728 299 L 196.488 284.500 192.744 284.190 C 190.685 284.019, 189 284.038, 189 284.231 M 206.399 285.680 C 206.718 286.681, 208.935 293.350, 211.327 300.500 C 215.520 313.033, 215.777 313.500, 218.474 313.500 C 221.176 313.500, 221.439 313.017, 226.089 299.500 C 228.737 291.800, 230.926 285.163, 230.952 284.750 C 230.979 284.337, 229.663 284, 228.029 284 C 225.135 284, 224.976 284.265, 221.879 294.234 L 218.699 304.469 215.574 294.484 C 212.494 284.645, 212.401 284.495, 209.135 284.180 C 206.317 283.908, 205.907 284.132, 206.399 285.680 M 268.223 298.750 L 268.500 313.500 276.111 313.456 C 281.635 313.424, 284.459 312.930, 286.409 311.652 C 294.995 306.026, 295.228 291.158, 286.810 286.026 C 284.241 284.459, 281.759 284.007, 275.723 284.004 L 267.947 284 268.223 298.750 M 304.150 286.190 C 299.185 299.738, 295 311.937, 295 312.860 C 295 313.487, 296.148 314, 297.551 314 C 299.521 314, 300.435 313.203, 301.564 310.500 C 302.980 307.112, 303.199 307, 308.436 307 C 313.731 307, 313.869 307.074, 315 310.500 C 315.970 313.438, 316.624 314, 319.078 314 C 320.791 314, 322 313.469, 322 312.715 C 322 312.008, 319.813 305.371, 317.141 297.965 L 312.281 284.500 308.639 284.190 C 305.598 283.930, 304.857 284.261, 304.150 286.190 M 325.527 292.781 C 330.619 301.060, 331 302.113, 331 307.906 C 331 314.109, 331.011 314.132, 333.750 313.816 C 336.400 313.511, 336.519 313.246, 337.017 306.500 C 337.477 300.266, 338.052 298.706, 342.267 292.240 C 344.870 288.247, 347 284.731, 347 284.426 C 347 284.122, 345.554 284.014, 343.786 284.187 C 341.093 284.449, 340.079 285.349, 337.536 289.732 C 335.866 292.610, 334.275 294.965, 334 294.965 C 333.725 294.965, 332.134 292.610, 330.464 289.732 C 327.768 285.087, 327.014 284.465, 323.741 284.191 L 320.054 283.882 325.527 292.781 M 350.753 297.414 C 348.143 304.787, 345.719 311.568, 345.368 312.483 C 344.838 313.864, 345.299 314.092, 348.083 313.823 C 350.898 313.552, 351.586 312.978, 352.363 310.250 C 353.269 307.071, 353.414 307, 359 307 C 364.586 307, 364.731 307.071, 365.637 310.250 C 366.404 312.941, 367.117 313.554, 369.782 313.813 C 371.552 313.986, 373 313.767, 373 313.328 C 373 312.888, 370.681 306.109, 367.847 298.264 L 362.693 284 359.097 284.005 L 355.500 284.010 350.753 297.414 M 241.455 291.455 C 236.406 296.503, 239.169 307, 245.939 308.487 C 249.323 309.230, 254.402 306.986, 255.970 304.055 C 258.185 299.917, 256.758 293.101, 253.087 290.282 C 250.269 288.118, 244.176 288.733, 241.455 291.455 M 274 298.500 L 274 308 278.427 308 C 284.165 308, 287 304.798, 287 298.320 C 287 292.371, 283.761 289, 278.045 289 L 274 289 274 298.500 M 190.678 295.431 C 188.447 301.978, 188.454 302, 192.608 302 C 196.009 302, 196.179 301.848, 195.554 299.360 C 195.190 297.909, 194.321 295.323, 193.624 293.614 L 192.356 290.507 190.678 295.431 M 306.678 295.431 C 304.447 301.978, 304.454 302, 308.608 302 C 312.009 302, 312.179 301.848, 311.554 299.360 C 311.190 297.909, 310.321 295.323, 309.624 293.614 L 308.356 290.507 306.678 295.431 M 357.087 295.104 C 356.411 297.361, 355.616 299.836, 355.322 300.604 C 354.916 301.662, 355.801 302, 358.976 302 C 361.949 302, 363.010 301.637, 362.629 300.750 C 362.334 300.063, 361.528 297.587, 360.838 295.250 C 360.149 292.913, 359.300 291, 358.951 291 C 358.602 291, 357.763 292.847, 357.087 295.104 M 37.504 316.980 C 35.529 325.973, 47.326 357.809, 59.006 375.010 C 74.470 397.780, 97.014 417.810, 127.858 436.180 C 141.633 444.384, 230.862 494.146, 249.668 504.112 L 259.836 509.500 264.206 507.950 C 273.529 504.644, 369.099 450.686, 400 431.282 C 438.506 407.103, 456.648 389.497, 470.359 363 C 478.651 346.976, 485.457 325.866, 484.803 318.203 C 484.276 312.027, 482.423 313.600, 480.071 322.222 C 470.052 358.952, 450.142 387.953, 419 411.175 C 402.752 423.290, 393.930 428.861, 363.385 446.295 C 304.891 479.680, 264.669 501.272, 261 501.258 C 257.315 501.242, 254.686 499.830, 181.500 458.560 C 112.907 419.880, 101.587 412.519, 84.525 395.500 C 65.016 376.039, 53.132 356.371, 44.299 328.926 C 41.660 320.724, 39.198 314.010, 38.829 314.006 C 38.461 314.003, 37.864 315.341, 37.504 316.980 M 158.009 328.983 C 156.304 332.170, 157.658 334.646, 162.071 336.412 C 169.106 339.227, 168.195 343.521, 160.750 342.636 C 156.010 342.073, 155.805 343.685, 160.504 344.567 C 162.987 345.033, 164.754 344.736, 166.566 343.549 C 170.483 340.982, 169.459 337.958, 163.750 335.231 C 161.137 333.983, 159 332.311, 159 331.516 C 159 329.188, 162.477 327.851, 165.521 329.008 C 167.549 329.779, 168.075 329.720, 167.758 328.758 C 167.531 328.066, 165.496 327.363, 163.237 327.196 C 159.909 326.949, 158.916 327.289, 158.009 328.983 M 175 336 C 175 341.333, 175.407 345, 176 345 C 176.550 345, 177 343.200, 177 341 L 177 337 182 337 L 187 337 187 341 C 187 343.200, 187.450 345, 188 345 C 188.593 345, 189 341.333, 189 336 C 189 330.667, 188.593 327, 188 327 C 187.450 327, 187 328.800, 187 331 L 187 335 182 335 L 177 335 177 331 C 177 328.800, 176.550 327, 176 327 C 175.407 327, 175 330.667, 175 336 M 196 336 C 196 341.333, 196.407 345, 197 345 C 197.593 345, 198 341.333, 198 336 C 198 330.667, 197.593 327, 197 327 C 196.407 327, 196 330.667, 196 336 M 205.246 328.154 C 204.560 328.840, 204 330.460, 204 331.756 C 204 333.584, 205 334.555, 208.459 336.085 C 213.728 338.416, 214.624 339.543, 212.878 341.648 C 211.957 342.756, 210.487 343.060, 207.791 342.699 C 203.021 342.059, 202.772 343.679, 207.504 344.567 C 209.987 345.033, 211.754 344.736, 213.566 343.549 C 217.483 340.982, 216.459 337.958, 210.750 335.231 C 208.137 333.983, 206 332.311, 206 331.516 C 206 329.188, 209.477 327.851, 212.521 329.008 C 214.549 329.779, 215.075 329.720, 214.758 328.758 C 214.200 327.059, 206.810 326.590, 205.246 328.154 M 222 336 C 222 341.333, 222.407 345, 223 345 C 223.550 345, 224 343.200, 224 341 L 224 337 229 337 L 234 337 234 341 C 234 343.200, 234.450 345, 235 345 C 235.593 345, 236 341.333, 236 336 C 236 330.667, 235.593 327, 235 327 C 234.450 327, 234 328.800, 234 331 L 234 335 229 335 L 224 335 224 331 C 224 328.800, 223.550 327, 223 327 C 222.407 327, 222 330.667, 222 336 M 243 334 C 243 339.667, 243.381 341.381, 245 343 C 247.510 345.510, 251.090 345.558, 254.100 343.120 C 256.044 341.546, 256.486 340.086, 256.823 334.120 C 257.095 329.318, 256.863 327, 256.113 327 C 255.411 327, 255 329.375, 255 333.429 C 255 340.445, 253.566 343, 249.629 343 C 245.975 343, 245 341.063, 245 333.800 C 245 329.933, 244.569 327, 244 327 C 243.429 327, 243 330, 243 334 M 272.570 329.204 C 270.545 332.094, 272.280 334.911, 277.081 336.527 C 279.709 337.412, 280.500 338.236, 280.500 340.089 C 280.500 342.339, 280.166 342.488, 275.500 342.322 C 270.947 342.160, 270.674 342.272, 272.441 343.572 C 276.779 346.763, 283 344.617, 283 339.929 C 283 337.337, 282.403 336.673, 278.610 335.047 C 273.295 332.769, 272.483 331.660, 274.589 329.554 C 275.750 328.392, 277.210 328.113, 279.848 328.548 C 282.576 328.997, 283.120 328.881, 282 328.090 C 279.328 326.202, 274.252 326.802, 272.570 329.204 M 290.594 334.507 C 289.111 338.686, 287.647 342.756, 287.342 343.552 C 287.036 344.348, 287.276 345, 287.874 345 C 288.472 345, 289.244 343.875, 289.589 342.500 C 290.135 340.326, 290.769 340, 294.448 340 C 297.991 340, 298.864 340.407, 299.818 342.500 C 300.445 343.875, 301.367 345, 301.869 345 C 303.340 345, 296.348 327.530, 294.747 327.205 C 293.744 327.001, 292.453 329.271, 290.594 334.507 M 308 336 L 308 345 312.545 345 C 318.778 345, 322 341.837, 322 335.720 C 322 329.724, 319.091 327, 312.686 327 L 308 327 308 336 M 332.617 327.811 C 330.853 330.665, 326.210 345, 327.050 345 C 327.600 345, 328.477 343.875, 329 342.500 C 329.798 340.401, 330.601 340, 334 340 C 337.399 340, 338.202 340.401, 339 342.500 C 339.523 343.875, 340.412 345, 340.975 345 C 342.296 345, 342.489 345.760, 338.702 336.068 C 335.571 328.055, 333.882 325.764, 332.617 327.811 M 347 336 C 347 341.333, 347.407 345, 348 345 C 348.581 345, 349 341.750, 349 337.250 L 349 329.500 353.966 337.250 C 356.697 341.512, 359.397 345, 359.966 345 C 360.601 345, 361 341.532, 361 336 C 361 330.212, 360.614 327, 359.918 327 C 359.213 327, 358.952 329.442, 359.168 334.002 C 359.351 337.853, 359.266 341.003, 358.980 341.002 C 358.694 341.001, 356.516 337.850, 354.141 334 C 348.193 324.362, 347 324.696, 347 336 M 310 335.369 L 310 343 313.345 343 C 317.577 343, 320 340.401, 320 335.862 C 320 331.189, 318.242 329.076, 313.747 328.346 L 310 327.738 310 335.369 M 292.732 334 L 291.161 338 294.580 338 C 296.461 338, 298 337.830, 298 337.622 C 298 336.878, 294.966 330, 294.638 330 C 294.454 330, 293.596 331.800, 292.732 334 M 332.613 332.407 C 332.280 333.731, 331.733 335.531, 331.397 336.407 C 330.916 337.661, 331.471 338, 334 338 C 336.529 338, 337.084 337.661, 336.603 336.407 C 336.267 335.531, 335.720 333.731, 335.387 332.407 C 335.055 331.083, 334.431 330, 334 330 C 333.569 330, 332.945 331.083, 332.613 332.407 M 97.873 380.354 L 90.245 387.626 95.227 392.848 C 99.297 397.114, 100.474 397.852, 101.651 396.875 C 102.869 395.864, 102.540 395.113, 99.519 392.019 L 95.945 388.360 97.990 386.509 C 99.992 384.697, 100.096 384.718, 103.024 387.523 C 105.330 389.733, 106.284 390.116, 107.200 389.200 C 108.116 388.284, 107.726 387.323, 105.493 384.993 C 102.775 382.156, 102.702 381.869, 104.290 380.281 C 105.879 378.693, 106.190 378.792, 109.404 381.907 C 112.612 385.016, 115 385.367, 115 382.729 C 115 381.566, 107.048 372.965, 106.042 373.041 C 105.744 373.063, 102.068 376.354, 97.873 380.354 M 387.500 393.208 C 384.825 394.742, 383.071 397.114, 383.032 399.250 C 382.986 401.747, 384.741 401.413, 387.301 398.437 C 388.798 396.696, 390.066 396.088, 391.253 396.544 C 393.303 397.330, 393.444 399.924, 391.820 406.958 C 390.809 411.338, 390.866 412.294, 392.217 413.645 C 393.651 415.080, 394.296 414.841, 399.410 410.980 C 403.913 407.581, 404.800 406.464, 403.879 405.354 C 402.920 404.199, 402.160 404.404, 399.299 406.585 C 395.337 409.608, 394.531 409.363, 395.972 405.574 C 399.315 396.782, 394.224 389.352, 387.500 393.208 M 128.635 399.073 C 125.197 401.777, 125.308 404.339, 129.070 409.088 C 133.703 414.938, 130.327 417.603, 124.886 412.391 C 122.335 409.946, 120 409.825, 120 412.136 C 120 412.696, 121.315 414.469, 122.923 416.077 C 126.397 419.551, 131.729 420.062, 134.345 417.171 C 136.765 414.497, 136.383 411.757, 132.996 407.495 C 130.676 404.575, 130.248 403.406, 131.118 402.357 C 132.719 400.429, 133.743 400.652, 136.656 403.565 C 139.718 406.627, 142.717 406.209, 140.979 402.961 C 139.832 400.818, 134.339 397.010, 132.385 397.004 C 131.772 397.002, 130.084 397.933, 128.635 399.073 M 108.364 403.493 C 108.018 404.396, 108.214 405.614, 108.800 406.200 C 110.324 407.724, 113.210 406.331, 112.812 404.265 C 112.369 401.963, 109.165 401.407, 108.364 403.493 M 366.842 407.239 L 362.183 410.174 364.225 415.087 C 365.348 417.789, 366.740 420, 367.319 420 C 367.898 420, 369.433 419.003, 370.730 417.783 C 372.579 416.047, 373.459 415.799, 374.795 416.641 C 378.551 419.006, 376.860 424, 372.304 424 C 370.499 424, 369.949 424.461, 370.216 425.750 C 370.724 428.202, 375.640 427.687, 378.640 424.868 C 384.741 419.137, 378.212 409.010, 371.325 413.523 C 369.199 414.916, 368.598 414.974, 367.890 413.855 C 366.533 411.714, 366.805 411.152, 370 409.500 C 372.811 408.046, 373.945 405.632, 372.250 404.710 C 371.837 404.486, 369.404 405.624, 366.842 407.239 M 159.378 412.458 C 159.034 413.353, 158.921 414.216, 159.126 414.375 C 159.332 414.533, 160.472 415.316, 161.661 416.113 L 163.822 417.563 159.496 425.230 C 155.926 431.558, 155.410 433.095, 156.541 434.034 C 158.538 435.691, 159.520 434.706, 163.589 426.963 C 165.601 423.133, 167.648 420, 168.137 420 C 168.627 420, 169.910 420.551, 170.989 421.225 C 172.536 422.192, 173.208 422.192, 174.175 421.225 C 175.720 419.680, 175.177 419.192, 166.751 414.548 C 160.951 411.352, 159.915 411.058, 159.378 412.458 M 343.923 421.923 C 340.613 425.233, 340.399 426.625, 342.445 431.523 C 345.843 439.654, 353.205 442.604, 357.826 437.686 C 361.558 433.713, 359.882 426.603, 354.059 421.703 C 349.944 418.240, 347.554 418.292, 343.923 421.923 M 142.036 423.456 C 140.548 425.249, 141.495 427, 143.952 427 C 146.189 427, 147.258 424.658, 145.722 423.122 C 144.239 421.639, 143.488 421.707, 142.036 423.456 M 345.980 425.037 C 344.459 427.879, 348.547 435.360, 351.880 435.835 C 356.905 436.550, 357.168 431.730, 352.411 426.077 C 349.397 422.495, 347.505 422.189, 345.980 425.037 M 191.277 430.250 C 188.367 434.007, 181.894 447.287, 182.634 447.981 C 184.820 450.036, 191.750 453, 194.367 453 C 198.835 453, 204 447.028, 204 441.863 C 204 436.525, 202.779 434.541, 197.644 431.531 C 192.655 428.608, 192.563 428.589, 191.277 430.250 M 320.857 434.989 C 317.995 437.851, 317.764 440, 320.318 440 C 320.979 440, 322.099 439.072, 322.807 437.937 C 324.504 435.220, 328.386 435.703, 328.811 438.682 C 328.982 439.883, 328.473 442.133, 327.681 443.682 C 325.658 447.639, 324.845 452.254, 325.885 453.871 C 326.597 454.977, 327.947 454.612, 332.884 451.981 C 338.525 448.975, 339.980 447.313, 338.376 445.710 C 338.033 445.366, 336.008 445.976, 333.876 447.063 C 329.486 449.303, 329.447 449.258, 331.500 444.346 C 333.413 439.768, 333.397 437.012, 331.443 434.223 C 329.151 430.949, 324.565 431.281, 320.857 434.989 M 190.610 440.220 L 187.085 446.475 189.293 447.702 C 192.802 449.653, 195.693 449.205, 197.927 446.365 C 201.408 441.940, 200.427 437.527, 195.318 434.635 C 194.573 434.213, 192.831 436.280, 190.610 440.220 M 171.122 438.278 C 169.635 439.765, 169.697 441.675, 171.250 442.246 C 173.275 442.990, 175 441.968, 175 440.024 C 175 437.807, 172.651 436.749, 171.122 438.278" stroke="none" fill="#f8fafa" fill-rule="evenodd"/><path d="M 256.500 11.156 C 249.720 16.484, 232.959 24.608, 224.953 26.446 C 213.496 29.077, 191.244 30.767, 166.095 30.916 C 141.613 31.061, 135.495 31.688, 129.648 34.648 C 124.987 37.007, 123.610 38.408, 113.490 51.088 C 108.403 57.461, 99.222 68.422, 93.087 75.445 C 85.574 84.047, 82.231 88.587, 82.846 89.357 C 93.834 103.106, 103.426 120.885, 106.934 134 C 109.869 144.972, 111.328 159.174, 110.569 169.381 C 109.709 180.948, 107.885 190.339, 102.002 213.500 C 96.246 236.160, 94.517 246.079, 92.502 268 C 90.286 292.106, 90.167 293.167, 89.608 293.726 C 89.005 294.329, 89.196 295.120, 83.533 268.677 C 79.093 247.948, 77.184 242.767, 73.057 240.242 C 70.442 238.642, 70.470 239.100, 73.539 248.075 C 74.936 252.159, 77.408 263.600, 79.033 273.500 C 80.659 283.400, 82.894 295.255, 84.002 299.844 C 86.827 311.553, 93.205 327.359, 98.991 336.985 C 114.490 362.773, 131.349 375.794, 194.500 410.750 C 251.035 442.043, 258.517 446, 261.160 446 C 265.559 446, 371.431 386.295, 388.894 373.966 C 410.420 358.768, 426.365 337.245, 434.522 312.372 C 436.723 305.661, 450.061 242.832, 449.968 239.609 C 449.923 238.041, 447.261 241.680, 444.459 247.140 C 441.917 252.093, 440.302 258.202, 437.076 275.063 C 435.964 280.872, 434.263 287.397, 433.296 289.563 L 431.538 293.500 430.872 278.500 C 430.179 262.883, 428.937 255.847, 418.605 209 C 412.878 183.032, 411.607 172.615, 412.325 157.500 C 413.371 135.475, 420.304 116.058, 433.926 97.003 C 437.267 92.330, 439.989 88.280, 439.976 88.003 C 439.963 87.727, 434.079 80.763, 426.900 72.529 C 419.720 64.295, 410.666 53.382, 406.779 48.277 C 398.849 37.865, 393.280 33.593, 385.655 32.073 C 382.820 31.508, 366.325 30.830, 349 30.568 C 317.094 30.084, 305.927 29.200, 296.025 26.375 C 287.762 24.018, 276.710 18.457, 269.617 13.089 C 266.128 10.447, 262.874 8.048, 262.386 7.757 C 261.899 7.466, 259.250 8.995, 256.500 11.156 M 250.198 22.982 C 238.394 29.158, 226.763 33.366, 213.750 36.172 C 204.673 38.128, 199.512 38.445, 168.634 38.941 L 133.767 39.500 129.736 44 C 127.519 46.475, 118.138 57.433, 108.890 68.351 L 92.075 88.201 96.905 95.359 C 110.318 115.237, 116.630 134.116, 117.718 157.620 C 118.457 173.574, 117.100 183.809, 109.976 216 C 99.607 262.856, 97.392 278.886, 99.050 295.072 C 100.462 308.851, 103.391 319.095, 109.465 331.500 C 118.114 349.165, 130.222 362.600, 149.526 375.950 C 163.240 385.435, 257.685 437, 261.343 437 C 265.121 437, 353.359 387.482, 374.740 373.363 C 406.198 352.590, 420.279 329.412, 422.952 294 C 424.564 272.654, 421.158 245.648, 413.116 215.993 C 410.952 208.015, 408.460 197.993, 407.578 193.722 C 399.952 156.804, 405.902 124.179, 425.476 95.588 C 428.024 91.867, 429.971 88.456, 429.804 88.008 C 428.984 85.809, 391.488 42.279, 389.171 40.837 C 386.896 39.421, 380.946 39.013, 349 38.083 C 311.475 36.990, 300.690 35.948, 289.500 32.335 C 283.433 30.376, 273.108 25.202, 267 21.060 C 264.525 19.382, 261.825 18.033, 261 18.062 C 260.175 18.091, 255.314 20.305, 250.198 22.982 M 257.999 28.730 C 248.922 35.178, 231.315 41.503, 214.236 44.451 C 194.826 47.801, 160.522 48.746, 143.494 46.398 L 139.488 45.846 121.271 66.905 L 103.053 87.964 107.850 94.302 C 114.822 103.513, 118.497 110.379, 121.882 120.521 C 131.650 149.790, 129.351 190.343, 115.504 233 C 96.287 292.199, 110.560 345.204, 151.500 366.679 C 155.350 368.698, 161.425 372.137, 165 374.320 C 181.179 384.199, 260.108 428, 261.732 428 C 262.221 428, 268.669 424.697, 276.060 420.660 C 283.452 416.623, 302.898 406.269, 319.273 397.652 C 367.760 372.137, 382.432 361.806, 398.313 342 C 405.361 333.211, 409.217 325.247, 412.254 313.209 C 414.170 305.618, 414.452 301.805, 414.459 283.500 C 414.468 256.508, 411.467 236.453, 402.952 206.602 C 398.290 190.261, 396.851 180.021, 396.825 163 C 396.782 135.876, 403.206 113.496, 416.541 94.317 L 420.839 88.134 402.300 67.067 L 383.761 46 369.631 45.991 C 316.488 45.957, 273.154 38.823, 263.622 28.537 L 261.497 26.244 257.999 28.730 M 255.297 82.750 C 255.473 96.849, 255.295 99.001, 253.950 99 C 252.781 99, 251.568 95.499, 249.015 84.750 C 245.908 71.665, 243.138 63.048, 244.435 70.500 C 245.958 79.246, 248.034 98.469, 247.583 99.644 C 246.391 102.752, 244.937 100.224, 239.451 85.496 C 236.274 76.969, 233.548 70.118, 233.394 70.273 C 233.239 70.427, 234.859 77.493, 236.994 85.974 C 239.128 94.456, 240.651 101.756, 240.378 102.197 C 239.106 104.256, 237.526 102.026, 230.947 88.893 C 227.060 81.135, 223.703 74.964, 223.487 75.180 C 223.271 75.396, 225.551 82.007, 228.554 89.870 C 233.591 103.060, 234.234 106, 232.081 106 C 231.641 106, 227.540 100.354, 222.969 93.453 C 218.398 86.553, 214.227 80.640, 213.699 80.314 C 212.799 79.758, 225.317 104.206, 227.167 106.617 C 227.678 107.282, 227.485 108.183, 226.690 108.842 C 225.642 109.712, 223.036 107.275, 214.538 97.475 C 208.588 90.614, 203.546 85, 203.334 85 C 203.122 85, 207.103 91.073, 212.180 98.495 C 224.839 117.002, 223.390 117.964, 206.413 102.325 C 199.353 95.821, 193.988 91.175, 194.490 92 C 194.992 92.825, 200.108 98.807, 205.858 105.293 C 213.092 113.453, 215.993 117.407, 215.274 118.126 C 214.305 119.095, 211.336 117.182, 189 101.202 C 187.075 99.825, 188.875 101.797, 193 105.584 C 209.989 121.180, 211.565 122.846, 209.927 123.474 C 208.604 123.982, 190.686 114.772, 182.268 109.256 C 181.021 108.439, 180 108.023, 180 108.333 C 180 108.643, 186.087 113.218, 193.527 118.501 C 205.425 126.949, 208.435 130, 204.873 130 C 204.318 130, 197.507 127.312, 189.737 124.028 C 181.968 120.743, 175.459 118.207, 175.273 118.393 C 175.088 118.579, 181.081 122.054, 188.592 126.115 C 200.878 132.759, 204.165 135.168, 202.803 136.531 C 202.558 136.775, 195.425 134.984, 186.950 132.550 C 178.475 130.116, 171.412 128.255, 171.253 128.414 C 171.094 128.573, 177.385 131.312, 185.232 134.501 C 193.079 137.691, 199.928 140.683, 200.450 141.150 C 203.215 143.624, 198.254 143.563, 183.533 140.943 C 174.751 139.379, 167.386 138.281, 167.165 138.502 C 166.945 138.722, 168.055 139.221, 169.632 139.610 C 184.399 143.253, 198.500 147.888, 198.500 149.099 C 198.500 149.957, 197.530 150.457, 196 150.388 C 194.625 150.327, 186.975 150.020, 179 149.707 L 164.500 149.138 181 151.993 C 190.075 153.563, 197.613 154.882, 197.750 154.924 C 197.887 154.966, 198 155.607, 198 156.349 C 198 157.746, 186.732 158.901, 171.500 159.065 C 161.668 159.171, 166.117 160.836, 176.500 160.937 C 189.686 161.064, 198 162.112, 198 163.645 C 198 164.390, 197.724 165, 197.386 165 C 195.917 165, 166.402 170.108, 165.500 170.519 C 164.512 170.968, 171.724 170.640, 189.750 169.416 C 197.673 168.878, 199 169.008, 199 170.323 C 199 171.337, 197.049 172.408, 193.250 173.480 C 190.088 174.372, 187.050 175.268, 186.500 175.472 C 185.609 175.802, 189.812 176.180, 197 176.418 C 198.375 176.463, 200.475 177.475, 201.666 178.666 C 202.857 179.857, 208.707 183.343, 214.666 186.411 C 220.953 189.649, 229.382 195.126, 234.750 199.462 C 239.838 203.572, 244 206.549, 244 206.079 C 244 203.775, 228.744 183.286, 216.337 168.927 C 205.519 156.408, 203.832 154.196, 206.095 155.501 C 208.270 156.754, 215.955 162.893, 221.664 167.937 C 224.505 170.447, 228.247 173.572, 229.981 174.881 C 231.715 176.191, 234.866 179.566, 236.983 182.381 C 243.471 191.007, 256.009 211.177, 255.448 212.085 C 255.157 212.556, 255.612 214.282, 256.459 215.921 C 257.307 217.560, 258 220.021, 258 221.391 C 258 222.761, 258.450 224.160, 259 224.500 C 259.567 224.851, 260 224.010, 260 222.559 C 260 217.663, 261.860 220.037, 262.501 225.750 C 263.374 233.547, 264.131 235.260, 265.039 231.500 C 265.437 229.850, 265.817 226.588, 265.882 224.250 C 265.964 221.302, 266.435 220, 267.419 220 C 268.222 220, 271.692 214.534, 275.405 207.420 C 282.287 194.236, 300.905 164.699, 304.145 161.827 C 307.482 158.868, 321.033 155.241, 339.500 152.365 C 349.400 150.822, 356.799 149.418, 355.943 149.244 C 355.086 149.070, 347.661 149.340, 339.443 149.844 C 328.738 150.501, 324.303 150.449, 323.804 149.660 C 323.422 149.054, 323.244 148.423, 323.409 148.258 C 323.710 147.956, 343.749 142.148, 351.851 140.015 C 360.292 137.791, 355.281 138.166, 338.984 140.976 C 329.918 142.540, 322.332 143.654, 322.126 143.453 C 320.684 142.037, 324.648 139.747, 337.421 134.617 C 345.477 131.382, 351.914 128.581, 351.726 128.392 C 351.537 128.204, 344.494 130.057, 336.073 132.511 C 321.919 136.635, 319 137.088, 319 135.160 C 319 134.763, 325.525 130.889, 333.499 126.552 C 341.474 122.214, 347.866 118.533, 347.704 118.371 C 347.542 118.208, 340.680 120.919, 332.455 124.393 C 318.916 130.112, 314.570 131.123, 316.426 128.119 C 316.785 127.539, 322.911 122.956, 330.039 117.934 C 342.333 109.275, 346.846 105.500, 339.750 109.812 C 325.825 118.272, 312.859 124.796, 312.391 123.577 C 311.886 122.261, 315.979 118.056, 328.500 107.025 C 340.931 96.073, 339.926 96.481, 321.732 109.771 C 312.393 116.593, 308.507 118.907, 307.718 118.118 C 306.929 117.329, 307.173 116.399, 308.597 114.763 C 309.680 113.518, 314.156 108.450, 318.543 103.500 C 330.517 89.989, 330.511 89.577, 318.495 100.447 C 302.254 115.139, 303.087 114.487, 301.973 113.373 C 301.305 112.705, 302.347 110.397, 305.104 106.436 C 307.377 103.171, 311.668 97.013, 314.640 92.750 C 317.613 88.488, 319.864 85, 319.642 85 C 319.308 85, 304.185 101.993, 299 108.194 C 298.012 109.376, 297.037 109.692, 296.145 109.120 C 295.012 108.394, 295.030 107.861, 296.256 105.876 C 298.908 101.581, 311.256 77.477, 310.279 78.500 C 309.754 79.050, 305.363 85.350, 300.520 92.500 C 295.677 99.650, 291.546 105.695, 291.341 105.933 C 291.135 106.172, 290.469 105.869, 289.860 105.260 C 289.051 104.451, 290.266 100.284, 294.377 89.772 C 297.469 81.863, 299.990 74.966, 299.979 74.446 C 299.967 73.926, 296.581 79.999, 292.453 87.942 C 288.326 95.886, 284.728 102.606, 284.458 102.876 C 284.188 103.146, 283.501 102.901, 282.933 102.333 C 282.060 101.460, 286.279 81.741, 289.553 71.391 C 291.524 65.159, 287.508 74.387, 282.976 86.500 C 280.096 94.200, 277.565 100.695, 277.353 100.933 C 277.140 101.172, 276.464 100.864, 275.850 100.250 C 275.027 99.427, 275.183 95.491, 276.440 85.316 C 277.379 77.717, 278.402 70.375, 278.714 69 C 279.026 67.625, 278.974 66.781, 278.599 67.125 C 278.223 67.469, 276.098 74.660, 273.875 83.105 C 271.653 91.550, 269.632 98.786, 269.385 99.186 C 269.138 99.586, 268.275 99.659, 267.468 99.349 C 266.264 98.887, 266 95.984, 266 83.226 C 266 74.669, 265.767 67.900, 265.483 68.184 C 265.198 68.469, 264.331 75.336, 263.555 83.445 C 262.780 91.554, 261.863 98.470, 261.518 98.815 C 260.151 100.182, 259.197 96.240, 257.968 84.146 C 256.030 65.062, 255.070 64.561, 255.297 82.750 M 315.582 165.211 C 306.004 176.890, 288.552 200.395, 290.228 199.359 C 290.919 198.932, 296.809 194.402, 303.317 189.291 C 309.826 184.181, 316.017 180, 317.075 180 C 318.134 180, 319.929 179.071, 321.065 177.935 C 322.521 176.479, 323.922 176.029, 325.815 176.409 C 327.292 176.706, 330.075 176.585, 332 176.141 L 335.500 175.332 329.250 173.534 C 323.234 171.804, 321.905 170.795, 323.966 169.521 C 324.497 169.193, 332.228 169.385, 341.146 169.948 C 350.064 170.512, 357.512 170.821, 357.698 170.636 C 357.883 170.450, 350.377 169.041, 341.017 167.503 C 322.238 164.418, 319.285 162.735, 330.750 161.652 C 334.462 161.301, 341.100 160.966, 345.500 160.907 C 360.704 160.704, 358.681 159.376, 342.055 158.645 C 333.011 158.247, 325.068 157.472, 324.405 156.922 C 323.529 156.194, 321.121 158.456, 315.582 165.211 M 337.052 176.942 C 335.455 177.958, 335.678 178.031, 346.500 180.030 C 349.800 180.639, 353.400 181.353, 354.500 181.617 C 359.602 182.838, 352.996 180.052, 347.282 178.572 C 343.862 177.687, 340.487 176.750, 339.782 176.491 C 339.077 176.233, 337.848 176.435, 337.052 176.942 M 173.832 178.868 C 170.714 179.766, 167.789 180.893, 167.332 181.374 C 166.863 181.866, 167.374 182.001, 168.500 181.681 C 169.600 181.369, 173.304 180.581, 176.731 179.931 C 180.158 179.280, 182.719 178.354, 182.422 177.874 C 181.734 176.761, 180.757 176.874, 173.832 178.868 M 326.154 182.884 C 324.100 184.185, 330.482 186.135, 333.278 185.061 C 335.463 184.220, 335.453 184.188, 332.685 183.103 C 329.331 181.789, 327.954 181.743, 326.154 182.884 M 179.770 187.305 C 174.419 189.543, 170.200 191.533, 170.395 191.728 C 170.590 191.923, 176.007 190.489, 182.433 188.541 C 188.859 186.594, 194.428 184.993, 194.808 184.985 C 195.189 184.976, 194.825 184.533, 194 184 C 191.756 182.550, 190.375 182.870, 179.770 187.305 M 335.291 185.794 C 334.566 186.258, 337.717 187.674, 343.160 189.331 C 348.153 190.851, 352.413 191.921, 352.625 191.708 C 352.838 191.495, 349.972 190.140, 346.256 188.698 C 336.549 184.929, 336.617 184.946, 335.291 185.794 M 186.941 194.552 C 179.548 198.632, 173.778 201.977, 174.119 201.985 C 174.859 202.003, 203.213 190.121, 203.778 189.555 C 203.994 189.339, 203.319 188.706, 202.277 188.148 C 200.742 187.327, 197.826 188.545, 186.941 194.552 M 319.250 187.662 C 318.563 187.940, 318 188.579, 318 189.083 C 318 190.230, 322.044 190.258, 323.834 189.124 C 326.004 187.748, 322.112 186.507, 319.250 187.662 M 324.521 190.361 C 323.031 191.451, 323.727 191.969, 329.962 194.416 C 333.895 195.959, 337.387 196.946, 337.723 196.610 C 338.478 195.855, 338.674 196.001, 331.864 192.232 C 327.149 189.622, 325.950 189.316, 324.521 190.361 M 195.446 199.804 C 188.817 204.587, 182.292 209.304, 180.946 210.288 C 178.349 212.186, 185.713 208.350, 200.495 200.106 C 206.569 196.719, 209.816 195.420, 210.495 196.106 C 211.512 197.135, 210.836 197.854, 197.655 209.750 C 194.456 212.637, 192.354 215, 192.983 215 C 193.612 215, 198.626 211.788, 204.125 207.862 C 211.254 202.772, 214.432 201.032, 215.198 201.798 C 215.965 202.565, 214.656 204.685, 210.637 209.186 C 206.417 213.915, 205.409 215.587, 206.622 215.847 C 207.545 216.044, 210.519 213.944, 213.541 210.959 C 217.175 207.371, 219.355 205.922, 220.476 206.352 C 221.885 206.893, 221.690 207.591, 219.063 211.409 C 215.181 217.051, 217.031 218.160, 222.160 213.264 C 226.464 209.155, 228.780 209.591, 226.461 214.075 C 225.058 216.789, 225.073 217.091, 226.643 217.693 C 227.784 218.131, 228.837 217.625, 229.800 216.175 C 231.822 213.129, 234.398 213.278, 233.616 216.396 C 232.551 220.638, 236.810 220.799, 238.293 216.573 C 238.911 214.811, 241.173 217.232, 240.677 219.126 C 240.366 220.316, 240.869 221.395, 242.023 222.012 C 243.498 222.802, 244 222.577, 244.537 220.883 C 246.070 216.052, 223.051 197.421, 208 191.311 C 207.725 191.200, 202.076 195.022, 195.446 199.804 M 308.750 195.079 C 302.673 199.390, 300.722 201.704, 306.250 198.045 C 308.038 196.862, 310.962 195.159, 312.750 194.262 C 314.538 193.364, 316 192.263, 316 191.815 C 316 190.315, 314.537 190.973, 308.750 195.079 M 315.553 194.915 C 314.806 196.122, 321.147 200, 323.868 200 C 326.915 200, 326.490 198.834, 322.502 196.250 C 318.817 193.863, 316.480 193.414, 315.553 194.915 M 303.912 201.805 C 299.835 204.473, 295.882 207.408, 295.128 208.328 C 294.373 209.247, 293.290 210, 292.723 210 C 292.155 210, 292.547 209.015, 293.595 207.811 L 295.500 205.622 292.500 207.724 C 290.850 208.880, 287.926 211.553, 286.001 213.663 L 282.503 217.500 286.543 213.750 C 292.007 208.680, 293.371 208.981, 288.453 214.171 L 284.500 218.343 289 214.838 C 291.475 212.911, 294.980 210.747, 296.788 210.030 C 298.597 209.313, 300.551 207.839, 301.131 206.755 C 301.874 205.367, 302.498 205.098, 303.246 205.846 C 303.976 206.576, 304.902 206.588, 306.218 205.883 C 307.733 205.073, 307.885 204.566, 306.952 203.442 C 306.023 202.323, 306.129 201.888, 307.455 201.379 C 308.379 201.025, 309.644 201.244, 310.267 201.867 C 311.601 203.201, 314.656 203.366, 315.410 202.145 C 315.701 201.675, 314.900 200.315, 313.631 199.123 L 311.324 196.956 303.912 201.805 M 342 198.755 C 342 199.199, 343.350 200.071, 345 200.694 C 346.650 201.317, 348 201.652, 348 201.439 C 348 201.226, 346.650 200.353, 345 199.500 C 343.350 198.647, 342 198.312, 342 198.755 M 317.095 204.941 C 316.376 205.386, 316.194 206.002, 316.691 206.309 C 317.188 206.616, 318.185 206.504, 318.905 206.059 C 319.624 205.614, 319.806 204.998, 319.309 204.691 C 318.812 204.384, 317.815 204.496, 317.095 204.941 M 308.653 207.911 C 307.114 208.480, 307.036 208.785, 308.187 209.740 C 309.054 210.460, 310.109 210.550, 311.025 209.984 C 313.025 208.748, 311.052 207.023, 308.653 207.911 M 335.083 207.377 C 336.023 208.228, 344 212.007, 344 211.602 C 344 210.830, 337.313 207, 335.965 207 C 335.251 207, 334.854 207.170, 335.083 207.377 M 300.975 211.016 C 298.824 212.345, 301.230 214.530, 303.467 213.279 C 304.839 212.511, 304.893 212.156, 303.780 211.232 C 302.938 210.534, 301.886 210.452, 300.975 211.016 M 325.500 212.535 C 327.150 213.889, 330.525 216.385, 333 218.080 C 337.169 220.935, 337.059 220.753, 331.500 215.605 C 328.200 212.549, 324.825 210.054, 324 210.060 C 323.066 210.068, 323.631 211.001, 325.500 212.535 M 313.635 213.781 C 313.370 214.210, 315.593 216.713, 318.576 219.343 C 321.559 221.973, 324 223.822, 324 223.451 C 324 222.372, 315.899 213, 314.966 213 C 314.500 213, 313.901 213.351, 313.635 213.781 M 293.500 215 C 293.160 215.550, 293.148 216.430, 293.473 216.956 C 294.296 218.287, 297 217.089, 297 215.393 C 297 213.794, 294.424 213.505, 293.500 215 M 304.627 216.795 C 304.037 217.750, 310.995 225.338, 311.760 224.574 C 312.470 223.863, 307.229 216, 306.045 216 C 305.535 216, 304.897 216.358, 304.627 216.795 M 296.601 219.837 C 295.840 221.068, 298.873 225, 300.582 225 C 301.856 225, 301.845 224.601, 300.500 222 C 298.954 219.009, 297.582 218.249, 296.601 219.837 M 289.306 222.644 C 287.748 223.278, 288.803 226, 290.607 226 C 291.373 226, 292 225.100, 292 224 C 292 221.990, 291.514 221.746, 289.306 222.644 M 281.667 226.667 C 280.452 227.881, 280.976 228.947, 282.500 228.362 C 283.325 228.045, 284 227.384, 284 226.893 C 284 225.845, 282.622 225.711, 281.667 226.667 M 54.234 240.113 C 48.720 242.843, 46.392 245.898, 45.551 251.510 C 44.511 258.443, 47.066 265.924, 51.995 270.376 C 54.201 272.369, 56.364 274, 56.802 274 C 57.240 274, 57.415 272.426, 57.190 270.503 C 56.261 262.541, 59.714 258.680, 67.622 258.839 L 72.210 258.931 71.552 255.216 C 70.465 249.070, 66.125 241.116, 62.968 239.483 C 59.321 237.597, 59.316 237.598, 54.234 240.113 M 456.912 243.094 C 454.559 245.613, 450 256.736, 450 259.959 C 450 260.370, 452.168 260.498, 454.817 260.244 C 458.882 259.853, 460.080 260.165, 462.497 262.244 C 465.071 264.458, 465.346 265.284, 465.211 270.400 L 465.062 276.092 467.781 274.154 C 474.058 269.679, 477 263.881, 477 255.982 C 477 249.632, 475.220 246.118, 470.266 242.684 C 464.930 238.986, 460.626 239.118, 456.912 243.094 M 29.210 280.315 C 21.191 296.877, 19.926 300.187, 19.960 304.527 C 19.982 307.318, 20.668 310.509, 21.501 311.698 C 23.336 314.318, 27.768 315.419, 31.211 314.110 C 32.618 313.575, 39.715 306.267, 46.981 297.871 L 60.192 282.604 55.285 281.004 C 52.585 280.124, 48.932 278.376, 47.166 277.118 C 43.520 274.522, 40.012 268.332, 39.706 263.956 C 39.593 262.332, 39.275 261.032, 39 261.067 C 38.725 261.101, 34.320 269.763, 29.210 280.315 M 62.577 262.915 C 60.891 264.778, 60.954 264.816, 64.861 264.292 C 68.591 263.792, 69.027 263.995, 70.936 267.126 C 72.913 270.370, 72.993 270.403, 72.996 267.973 C 73.005 261.881, 66.410 258.680, 62.577 262.915 M 452.695 263.111 C 450.211 264.556, 448.736 268.725, 449.964 270.829 C 450.820 272.296, 450.943 272.245, 450.970 270.405 C 451.030 266.219, 456.984 263.384, 459.800 266.200 C 460.667 267.067, 461 267.083, 461 266.257 C 461 264.979, 457.121 261.983, 455.527 262.030 C 454.962 262.047, 453.688 262.533, 452.695 263.111 M 483.077 264.185 C 482.970 267.914, 481.265 272.066, 478.683 274.882 C 475.961 277.852, 469.390 280.949, 465.750 280.978 C 464.238 280.990, 463 281.247, 463 281.548 C 463 281.850, 468.908 288.937, 476.130 297.298 C 491.782 315.420, 496.352 318.164, 501.030 312.250 C 502.784 310.032, 503.101 308.630, 502.671 305 C 501.994 299.295, 483.193 260.131, 483.077 264.185 M 63.212 269.188 C 61.474 270.926, 61.718 273.678, 63.678 274.430 C 66.127 275.370, 68.769 272.442, 67.412 270.291 C 66.007 268.064, 64.684 267.716, 63.212 269.188 M 455.105 271.373 C 453.462 273.353, 454.832 276, 457.500 276 C 458.757 276, 460.067 275.268, 460.410 274.373 C 461.111 272.548, 459.415 270, 457.500 270 C 456.810 270, 455.732 270.618, 455.105 271.373 M 59 291.548 C 42.277 310.570, 42.726 309.248, 47.482 325.500 C 56.646 356.816, 74.944 383.944, 101.089 404.974 C 118.993 419.375, 124.788 422.839, 217.129 474.340 C 246.800 490.888, 258.634 497, 261.005 497 C 267.474 497, 373.368 436.906, 407.973 413.596 C 444.977 388.671, 464.629 362.115, 475.613 322.190 C 479.436 308.296, 481.337 311.955, 454.572 281.700 C 451.312 278.015, 448.367 275, 448.028 275 C 447.689 275, 446.390 280.288, 445.142 286.750 C 438.630 320.456, 429.061 341.096, 412.076 358.072 C 393.340 376.799, 373.131 390.396, 322 418.677 C 276.297 443.955, 264.508 450, 260.911 450 C 258.654 450, 254.284 448.207, 248 444.703 C 242.775 441.790, 224.100 431.387, 206.500 421.585 C 139.394 384.211, 129.045 377.720, 115.753 364.661 C 95.347 344.615, 84.038 322.214, 77.431 288.750 C 75.937 281.188, 74.442 275.013, 74.108 275.028 C 73.773 275.043, 66.975 282.477, 59 291.548 M 240.985 285.250 C 235.299 288.132, 232.598 292.702, 232.698 299.274 C 232.818 307.247, 238.375 312.980, 246.676 313.695 C 259.012 314.758, 267.040 302.186, 261.176 290.984 C 259.177 287.165, 252.303 283, 248 283 C 246.583 283, 243.426 284.012, 240.985 285.250 M 150.223 298.688 L 150.500 313.500 153.250 313.816 L 156 314.133 156.006 303.816 L 156.012 293.500 161.319 302.172 C 168.223 313.455, 168.721 314, 172.122 314 L 175 314 175 299 L 175 284 171.931 284 L 168.863 284 169.181 293.502 C 169.357 298.728, 169.275 302.992, 169 302.977 C 168.725 302.962, 165.993 298.799, 162.928 293.725 C 157.653 284.992, 157.158 284.483, 153.651 284.188 L 149.946 283.876 150.223 298.688 M 189 284.231 C 189 284.424, 186.750 290.801, 184 298.401 C 181.250 306.001, 179 312.620, 179 313.110 C 179 313.599, 180.315 314, 181.922 314 C 184.376 314, 185.030 313.438, 186 310.500 C 187.131 307.074, 187.269 307, 192.564 307 C 197.801 307, 198.020 307.112, 199.436 310.500 C 200.654 313.416, 201.407 314, 203.949 314 C 205.627 314, 206.993 313.887, 206.984 313.750 C 206.975 313.613, 204.610 306.975, 201.728 299 L 196.488 284.500 192.744 284.190 C 190.685 284.019, 189 284.038, 189 284.231 M 206.399 285.680 C 206.718 286.681, 208.935 293.350, 211.327 300.500 C 215.520 313.033, 215.777 313.500, 218.474 313.500 C 221.176 313.500, 221.439 313.017, 226.089 299.500 C 228.737 291.800, 230.926 285.163, 230.952 284.750 C 230.979 284.337, 229.663 284, 228.029 284 C 225.135 284, 224.976 284.265, 221.879 294.234 L 218.699 304.469 215.574 294.484 C 212.494 284.645, 212.401 284.495, 209.135 284.180 C 206.317 283.908, 205.907 284.132, 206.399 285.680 M 268.223 298.750 L 268.500 313.500 276.111 313.456 C 281.635 313.424, 284.459 312.930, 286.409 311.652 C 294.995 306.026, 295.228 291.158, 286.810 286.026 C 284.241 284.459, 281.759 284.007, 275.723 284.004 L 267.947 284 268.223 298.750 M 304.150 286.190 C 299.185 299.738, 295 311.937, 295 312.860 C 295 313.487, 296.148 314, 297.551 314 C 299.521 314, 300.435 313.203, 301.564 310.500 C 302.980 307.112, 303.199 307, 308.436 307 C 313.731 307, 313.869 307.074, 315 310.500 C 315.970 313.438, 316.624 314, 319.078 314 C 320.791 314, 322 313.469, 322 312.715 C 322 312.008, 319.813 305.371, 317.141 297.965 L 312.281 284.500 308.639 284.190 C 305.598 283.930, 304.857 284.261, 304.150 286.190 M 325.527 292.781 C 330.619 301.060, 331 302.113, 331 307.906 C 331 314.109, 331.011 314.132, 333.750 313.816 C 336.400 313.511, 336.519 313.246, 337.017 306.500 C 337.477 300.266, 338.052 298.706, 342.267 292.240 C 344.870 288.247, 347 284.731, 347 284.426 C 347 284.122, 345.554 284.014, 343.786 284.187 C 341.093 284.449, 340.079 285.349, 337.536 289.732 C 335.866 292.610, 334.275 294.965, 334 294.965 C 333.725 294.965, 332.134 292.610, 330.464 289.732 C 327.768 285.087, 327.014 284.465, 323.741 284.191 L 320.054 283.882 325.527 292.781 M 350.753 297.414 C 348.143 304.787, 345.719 311.568, 345.368 312.483 C 344.838 313.864, 345.299 314.092, 348.083 313.823 C 350.898 313.552, 351.586 312.978, 352.363 310.250 C 353.269 307.071, 353.414 307, 359 307 C 364.586 307, 364.731 307.071, 365.637 310.250 C 366.404 312.941, 367.117 313.554, 369.782 313.813 C 371.552 313.986, 373 313.767, 373 313.328 C 373 312.888, 370.681 306.109, 367.847 298.264 L 362.693 284 359.097 284.005 L 355.500 284.010 350.753 297.414 M 241.455 291.455 C 236.406 296.503, 239.169 307, 245.939 308.487 C 249.323 309.230, 254.402 306.986, 255.970 304.055 C 258.185 299.917, 256.758 293.101, 253.087 290.282 C 250.269 288.118, 244.176 288.733, 241.455 291.455 M 274 298.500 L 274 308 278.427 308 C 284.165 308, 287 304.798, 287 298.320 C 287 292.371, 283.761 289, 278.045 289 L 274 289 274 298.500 M 190.678 295.431 C 188.447 301.978, 188.454 302, 192.608 302 C 196.009 302, 196.179 301.848, 195.554 299.360 C 195.190 297.909, 194.321 295.323, 193.624 293.614 L 192.356 290.507 190.678 295.431 M 306.678 295.431 C 304.447 301.978, 304.454 302, 308.608 302 C 312.009 302, 312.179 301.848, 311.554 299.360 C 311.190 297.909, 310.321 295.323, 309.624 293.614 L 308.356 290.507 306.678 295.431 M 357.087 295.104 C 356.411 297.361, 355.616 299.836, 355.322 300.604 C 354.916 301.662, 355.801 302, 358.976 302 C 361.949 302, 363.010 301.637, 362.629 300.750 C 362.334 300.063, 361.528 297.587, 360.838 295.250 C 360.149 292.913, 359.300 291, 358.951 291 C 358.602 291, 357.763 292.847, 357.087 295.104 M 37.504 316.980 C 35.529 325.973, 47.326 357.809, 59.006 375.010 C 74.470 397.780, 97.014 417.810, 127.858 436.180 C 141.633 444.384, 230.862 494.146, 249.668 504.112 L 259.836 509.500 264.206 507.950 C 273.529 504.644, 369.099 450.686, 400 431.282 C 438.506 407.103, 456.648 389.497, 470.359 363 C 478.651 346.976, 485.457 325.866, 484.803 318.203 C 484.276 312.027, 482.423 313.600, 480.071 322.222 C 470.052 358.952, 450.142 387.953, 419 411.175 C 402.752 423.290, 393.930 428.861, 363.385 446.295 C 304.891 479.680, 264.669 501.272, 261 501.258 C 257.315 501.242, 254.686 499.830, 181.500 458.560 C 112.907 419.880, 101.587 412.519, 84.525 395.500 C 65.016 376.039, 53.132 356.371, 44.299 328.926 C 41.660 320.724, 39.198 314.010, 38.829 314.006 C 38.461 314.003, 37.864 315.341, 37.504 316.980 M 158.009 328.983 C 156.304 332.170, 157.658 334.646, 162.071 336.412 C 169.106 339.227, 168.195 343.521, 160.750 342.636 C 156.010 342.073, 155.805 343.685, 160.504 344.567 C 162.987 345.033, 164.754 344.736, 166.566 343.549 C 170.483 340.982, 169.459 337.958, 163.750 335.231 C 161.137 333.983, 159 332.311, 159 331.516 C 159 329.188, 162.477 327.851, 165.521 329.008 C 167.549 329.779, 168.075 329.720, 167.758 328.758 C 167.531 328.066, 165.496 327.363, 163.237 327.196 C 159.909 326.949, 158.916 327.289, 158.009 328.983 M 175 336 C 175 341.333, 175.407 345, 176 345 C 176.550 345, 177 343.200, 177 341 L 177 337 182 337 L 187 337 187 341 C 187 343.200, 187.450 345, 188 345 C 188.593 345, 189 341.333, 189 336 C 189 330.667, 188.593 327, 188 327 C 187.450 327, 187 328.800, 187 331 L 187 335 182 335 L 177 335 177 331 C 177 328.800, 176.550 327, 176 327 C 175.407 327, 175 330.667, 175 336 M 196 336 C 196 341.333, 196.407 345, 197 345 C 197.593 345, 198 341.333, 198 336 C 198 330.667, 197.593 327, 197 327 C 196.407 327, 196 330.667, 196 336 M 205.246 328.154 C 204.560 328.840, 204 330.460, 204 331.756 C 204 333.584, 205 334.555, 208.459 336.085 C 213.728 338.416, 214.624 339.543, 212.878 341.648 C 211.957 342.756, 210.487 343.060, 207.791 342.699 C 203.021 342.059, 202.772 343.679, 207.504 344.567 C 209.987 345.033, 211.754 344.736, 213.566 343.549 C 217.483 340.982, 216.459 337.958, 210.750 335.231 C 208.137 333.983, 206 332.311, 206 331.516 C 206 329.188, 209.477 327.851, 212.521 329.008 C 214.549 329.779, 215.075 329.720, 214.758 328.758 C 214.200 327.059, 206.810 326.590, 205.246 328.154 M 222 336 C 222 341.333, 222.407 345, 223 345 C 223.550 345, 224 343.200, 224 341 L 224 337 229 337 L 234 337 234 341 C 234 343.200, 234.450 345, 235 345 C 235.593 345, 236 341.333, 236 336 C 236 330.667, 235.593 327, 235 327 C 234.450 327, 234 328.800, 234 331 L 234 335 229 335 L 224 335 224 331 C 224 328.800, 223.550 327, 223 327 C 222.407 327, 222 330.667, 222 336 M 243 334 C 243 339.667, 243.381 341.381, 245 343 C 247.510 345.510, 251.090 345.558, 254.100 343.120 C 256.044 341.546, 256.486 340.086, 256.823 334.120 C 257.095 329.318, 256.863 327, 256.113 327 C 255.411 327, 255 329.375, 255 333.429 C 255 340.445, 253.566 343, 249.629 343 C 245.975 343, 245 341.063, 245 333.800 C 245 329.933, 244.569 327, 244 327 C 243.429 327, 243 330, 243 334 M 272.570 329.204 C 270.545 332.094, 272.280 334.911, 277.081 336.527 C 279.709 337.412, 280.500 338.236, 280.500 340.089 C 280.500 342.339, 280.166 342.488, 275.500 342.322 C 270.947 342.160, 270.674 342.272, 272.441 343.572 C 276.779 346.763, 283 344.617, 283 339.929 C 283 337.337, 282.403 336.673, 278.610 335.047 C 273.295 332.769, 272.483 331.660, 274.589 329.554 C 275.750 328.392, 277.210 328.113, 279.848 328.548 C 282.576 328.997, 283.120 328.881, 282 328.090 C 279.328 326.202, 274.252 326.802, 272.570 329.204 M 290.594 334.507 C 289.111 338.686, 287.647 342.756, 287.342 343.552 C 287.036 344.348, 287.276 345, 287.874 345 C 288.472 345, 289.244 343.875, 289.589 342.500 C 290.135 340.326, 290.769 340, 294.448 340 C 297.991 340, 298.864 340.407, 299.818 342.500 C 300.445 343.875, 301.367 345, 301.869 345 C 303.340 345, 296.348 327.530, 294.747 327.205 C 293.744 327.001, 292.453 329.271, 290.594 334.507 M 308 336 L 308 345 312.545 345 C 318.778 345, 322 341.837, 322 335.720 C 322 329.724, 319.091 327, 312.686 327 L 308 327 308 336 M 332.617 327.811 C 330.853 330.665, 326.210 345, 327.050 345 C 327.600 345, 328.477 343.875, 329 342.500 C 329.798 340.401, 330.601 340, 334 340 C 337.399 340, 338.202 340.401, 339 342.500 C 339.523 343.875, 340.412 345, 340.975 345 C 342.296 345, 342.489 345.760, 338.702 336.068 C 335.571 328.055, 333.882 325.764, 332.617 327.811 M 347 336 C 347 341.333, 347.407 345, 348 345 C 348.581 345, 349 341.750, 349 337.250 L 349 329.500 353.966 337.250 C 356.697 341.512, 359.397 345, 359.966 345 C 360.601 345, 361 341.532, 361 336 C 361 330.212, 360.614 327, 359.918 327 C 359.213 327, 358.952 329.442, 359.168 334.002 C 359.351 337.853, 359.266 341.003, 358.980 341.002 C 358.694 341.001, 356.516 337.850, 354.141 334 C 348.193 324.362, 347 324.696, 347 336 M 310 335.369 L 310 343 313.345 343 C 317.577 343, 320 340.401, 320 335.862 C 320 331.189, 318.242 329.076, 313.747 328.346 L 310 327.738 310 335.369 M 292.732 334 L 291.161 338 294.580 338 C 296.461 338, 298 337.830, 298 337.622 C 298 336.878, 294.966 330, 294.638 330 C 294.454 330, 293.596 331.800, 292.732 334 M 332.613 332.407 C 332.280 333.731, 331.733 335.531, 331.397 336.407 C 330.916 337.661, 331.471 338, 334 338 C 336.529 338, 337.084 337.661, 336.603 336.407 C 336.267 335.531, 335.720 333.731, 335.387 332.407 C 335.055 331.083, 334.431 330, 334 330 C 333.569 330, 332.945 331.083, 332.613 332.407 M 97.873 380.354 L 90.245 387.626 95.227 392.848 C 99.297 397.114, 100.474 397.852, 101.651 396.875 C 102.869 395.864, 102.540 395.113, 99.519 392.019 L 95.945 388.360 97.990 386.509 C 99.992 384.697, 100.096 384.718, 103.024 387.523 C 105.330 389.733, 106.284 390.116, 107.200 389.200 C 108.116 388.284, 107.726 387.323, 105.493 384.993 C 102.775 382.156, 102.702 381.869, 104.290 380.281 C 105.879 378.693, 106.190 378.792, 109.404 381.907 C 112.612 385.016, 115 385.367, 115 382.729 C 115 381.566, 107.048 372.965, 106.042 373.041 C 105.744 373.063, 102.068 376.354, 97.873 380.354 M 387.500 393.208 C 384.825 394.742, 383.071 397.114, 383.032 399.250 C 382.986 401.747, 384.741 401.413, 387.301 398.437 C 388.798 396.696, 390.066 396.088, 391.253 396.544 C 393.303 397.330, 393.444 399.924, 391.820 406.958 C 390.809 411.338, 390.866 412.294, 392.217 413.645 C 393.651 415.080, 394.296 414.841, 399.410 410.980 C 403.913 407.581, 404.800 406.464, 403.879 405.354 C 402.920 404.199, 402.160 404.404, 399.299 406.585 C 395.337 409.608, 394.531 409.363, 395.972 405.574 C 399.315 396.782, 394.224 389.352, 387.500 393.208 M 128.635 399.073 C 125.197 401.777, 125.308 404.339, 129.070 409.088 C 133.703 414.938, 130.327 417.603, 124.886 412.391 C 122.335 409.946, 120 409.825, 120 412.136 C 120 412.696, 121.315 414.469, 122.923 416.077 C 126.397 419.551, 131.729 420.062, 134.345 417.171 C 136.765 414.497, 136.383 411.757, 132.996 407.495 C 130.676 404.575, 130.248 403.406, 131.118 402.357 C 132.719 400.429, 133.743 400.652, 136.656 403.565 C 139.718 406.627, 142.717 406.209, 140.979 402.961 C 139.832 400.818, 134.339 397.010, 132.385 397.004 C 131.772 397.002, 130.084 397.933, 128.635 399.073 M 108.364 403.493 C 108.018 404.396, 108.214 405.614, 108.800 406.200 C 110.324 407.724, 113.210 406.331, 112.812 404.265 C 112.369 401.963, 109.165 401.407, 108.364 403.493 M 366.842 407.239 L 362.183 410.174 364.225 415.087 C 365.348 417.789, 366.740 420, 367.319 420 C 367.898 420, 369.433 419.003, 370.730 417.783 C 372.579 416.047, 373.459 415.799, 374.795 416.641 C 378.551 419.006, 376.860 424, 372.304 424 C 370.499 424, 369.949 424.461, 370.216 425.750 C 370.724 428.202, 375.640 427.687, 378.640 424.868 C 384.741 419.137, 378.212 409.010, 371.325 413.523 C 369.199 414.916, 368.598 414.974, 367.890 413.855 C 366.533 411.714, 366.805 411.152, 370 409.500 C 372.811 408.046, 373.945 405.632, 372.250 404.710 C 371.837 404.486, 369.404 405.624, 366.842 407.239 M 159.378 412.458 C 159.034 413.353, 158.921 414.216, 159.126 414.375 C 159.332 414.533, 160.472 415.316, 161.661 416.113 L 163.822 417.563 159.496 425.230 C 155.926 431.558, 155.410 433.095, 156.541 434.034 C 158.538 435.691, 159.520 434.706, 163.589 426.963 C 165.601 423.133, 167.648 420, 168.137 420 C 168.627 420, 169.910 420.551, 170.989 421.225 C 172.536 422.192, 173.208 422.192, 174.175 421.225 C 175.720 419.680, 175.177 419.192, 166.751 414.548 C 160.951 411.352, 159.915 411.058, 159.378 412.458 M 343.923 421.923 C 340.613 425.233, 340.399 426.625, 342.445 431.523 C 345.843 439.654, 353.205 442.604, 357.826 437.686 C 361.558 433.713, 359.882 426.603, 354.059 421.703 C 349.944 418.240, 347.554 418.292, 343.923 421.923 M 142.036 423.456 C 140.548 425.249, 141.495 427, 143.952 427 C 146.189 427, 147.258 424.658, 145.722 423.122 C 144.239 421.639, 143.488 421.707, 142.036 423.456 M 345.980 425.037 C 344.459 427.879, 348.547 435.360, 351.880 435.835 C 356.905 436.550, 357.168 431.730, 352.411 426.077 C 349.397 422.495, 347.505 422.189, 345.980 425.037 M 191.277 430.250 C 188.367 434.007, 181.894 447.287, 182.634 447.981 C 184.820 450.036, 191.750 453, 194.367 453 C 198.835 453, 204 447.028, 204 441.863 C 204 436.525, 202.779 434.541, 197.644 431.531 C 192.655 428.608, 192.563 428.589, 191.277 430.250 M 320.857 434.989 C 317.995 437.851, 317.764 440, 320.318 440 C 320.979 440, 322.099 439.072, 322.807 437.937 C 324.504 435.220, 328.386 435.703, 328.811 438.682 C 328.982 439.883, 328.473 442.133, 327.681 443.682 C 325.658 447.639, 324.845 452.254, 325.885 453.871 C 326.597 454.977, 327.947 454.612, 332.884 451.981 C 338.525 448.975, 339.980 447.313, 338.376 445.710 C 338.033 445.366, 336.008 445.976, 333.876 447.063 C 329.486 449.303, 329.447 449.258, 331.500 444.346 C 333.413 439.768, 333.397 437.012, 331.443 434.223 C 329.151 430.949, 324.565 431.281, 320.857 434.989 M 190.610 440.220 L 187.085 446.475 189.293 447.702 C 192.802 449.653, 195.693 449.205, 197.927 446.365 C 201.408 441.940, 200.427 437.527, 195.318 434.635 C 194.573 434.213, 192.831 436.280, 190.610 440.220 M 171.122 438.278 C 169.635 439.765, 169.697 441.675, 171.250 442.246 C 173.275 442.990, 175 441.968, 175 440.024 C 175 437.807, 172.651 436.749, 171.122 438.278" stroke="none" fill="#0776b7" fill-rule="evenodd"/></svg>