<?xml version="1.0" encoding="UTF-8" standalone="no"?>
<!DOCTYPE svg PUBLIC "-//W3C//DTD SVG 1.1//EN" "http://www.w3.org/Graphics/SVG/1.1/DTD/svg11.dtd">
<svg width="100%" height="100%" viewBox="0 0 300 164" version="1.1" xmlns="http://www.w3.org/2000/svg" xmlns:xlink="http://www.w3.org/1999/xlink" xml:space="preserve" xmlns:serif="http://www.serif.com/" style="fill-rule:evenodd;clip-rule:evenodd;stroke-linejoin:round;stroke-miterlimit:2;">
    <g transform="matrix(0.460826,0,0,0.460826,150,94.9037)">
        <g id="World_Customs_Organization.svg" transform="matrix(1,0,0,1,-404.5,-404.5)">
            <g transform="matrix(4.16667,0,0,4.16667,0,0)">
                <path d="M70.149,72.744C70.347,83.855 77.094,93.511 86.882,97.348C89.197,98.472 95.083,99.133 95.083,99.133C105.335,99.795 113.866,95.033 119.091,87.096C121.737,83.194 123.192,78.631 123.39,73.273L123.39,72.794L134.171,72.811L134.171,76.316L134.105,76.316C132.65,90.932 121.935,104.425 107.848,108.393C104.21,109.253 100.374,110.047 98.258,113.353C97.464,114.544 97.067,116.065 96.67,117.454C96.207,113.684 93.297,110.509 89.792,109.385C76.763,107.136 65.387,97.083 61.352,84.716C60.625,82.665 60.096,80.483 59.831,78.168C59.236,76.646 59.567,74.53 59.369,72.744L70.149,72.744Z" style="fill:rgb(0,158,214);"/>
                <path d="M94.999,84.656C89.112,83.869 84.571,78.826 84.571,72.724C84.571,66.62 89.115,61.576 95.004,60.791L95.007,60.836L95.007,49.862L94.989,49.455C83.094,50.416 73.74,60.375 73.74,72.518C73.74,84.661 83.092,94.619 94.988,95.583L95.007,95.041L95.007,84.965L94.999,84.656Z" style="fill:rgb(188,181,180);"/>
                <path d="M98.476,95.604C110.511,94.784 120.02,84.761 120.02,72.518C120.02,60.26 110.488,50.228 98.432,49.429L98.472,60.836L98.455,60.825C104.227,61.713 108.651,66.702 108.651,72.724C108.651,78.731 104.251,83.71 98.499,84.616L98.472,84.644L98.472,95.426L98.476,95.604Z" style="fill:rgb(188,181,180);"/>
                <path d="M28.765,124.87L28.765,129.083C28.765,129.87 29.108,130.269 29.718,130.269C30.321,130.269 30.672,129.87 30.672,129.083L30.672,124.87L31.867,124.87L31.867,129.083C31.867,129.87 32.209,130.269 32.821,130.269C33.422,130.269 33.775,129.87 33.775,129.083L33.775,124.87L34.96,124.87L34.96,129.056C34.96,130.565 34.08,131.454 32.821,131.454C32.2,131.454 31.654,131.195 31.274,130.741C30.876,131.204 30.33,131.454 29.718,131.454C28.459,131.454 27.58,130.565 27.58,129.056L27.58,124.87L28.765,124.87Z" style="fill:rgb(0,158,214);"/>
                <path d="M37.006,128.093C37.006,127.519 37.21,127 37.608,126.584C37.987,126.185 38.497,125.963 39.043,125.963C39.589,125.963 40.089,126.185 40.469,126.584C40.858,126.991 41.071,127.519 41.071,128.093C41.071,128.667 40.858,129.204 40.469,129.611C40.089,130.009 39.589,130.232 39.043,130.232C38.497,130.232 37.987,130.009 37.608,129.611C37.21,129.195 37.006,128.667 37.006,128.093ZM35.737,128.102C35.737,129.009 36.071,129.824 36.709,130.473C37.33,131.102 38.154,131.454 39.043,131.454C39.932,131.454 40.747,131.112 41.376,130.473C42.006,129.834 42.339,129 42.339,128.102C42.339,127.204 42.006,126.38 41.376,125.741C40.747,125.102 39.932,124.759 39.043,124.759C38.154,124.759 37.33,125.102 36.709,125.732C36.071,126.38 35.737,127.195 35.737,128.102Z" style="fill:rgb(0,158,214);"/>
                <path d="M43.089,127.102C43.089,125.676 44.006,124.75 45.312,124.75C46.543,124.75 47.46,125.602 47.46,126.63C47.46,127.213 47.182,127.694 46.654,128.037C47.358,128.278 47.589,128.685 47.589,129.445L47.589,131.343L46.367,131.343L46.367,129.695C46.367,128.954 46.098,128.778 45.312,128.778L44.645,128.778L44.645,127.639L45.034,127.639C45.793,127.639 46.182,127.343 46.182,126.778C46.182,126.287 45.802,125.917 45.312,125.917C44.682,125.917 44.311,126.361 44.311,127.185L44.311,131.334L43.089,131.334L43.089,127.102Z" style="fill:rgb(0,158,214);"/>
                <path d="M49.598,124.87L49.598,129.167C49.598,129.834 49.941,130.176 50.617,130.176L51.821,130.176L51.821,131.343L50.682,131.343C49.145,131.343 48.385,130.602 48.385,129.083L48.385,124.87L49.598,124.87Z" style="fill:rgb(0,158,214);"/>
                <path d="M52.376,124.87L53.691,124.87C54.636,124.87 55.376,125.019 55.978,125.408C56.923,126.028 57.432,126.963 57.432,128.102C57.432,129.176 56.978,130.083 56.089,130.722C55.524,131.13 54.793,131.334 53.886,131.343L53.886,130.186C55.293,130.186 56.172,129.324 56.172,128.093C56.172,126.908 55.302,126.037 53.969,126.037L53.598,126.037L53.598,131.343L52.376,131.343L52.376,124.87Z" style="fill:rgb(0,158,214);"/>
                <path d="M64.525,131.343C63.45,131.343 62.636,131.167 62.06,130.797C61.108,130.186 60.571,129.213 60.571,128.102C60.571,126.991 61.108,126.028 62.06,125.417C62.636,125.047 63.45,124.87 64.525,124.87L64.682,124.87L64.682,126.028C64.58,126.019 64.486,126.019 64.395,126.019C62.747,126.019 61.838,126.796 61.838,128.102C61.838,129.408 62.747,130.195 64.403,130.195C64.486,130.195 64.59,130.195 64.682,130.186L64.682,131.343L64.525,131.343Z" style="fill:rgb(0,158,214);"/>
                <path d="M66.627,128.852C66.627,129.787 67.043,130.269 67.764,130.269C68.488,130.269 68.894,129.787 68.894,128.852L68.894,124.87L70.117,124.87L70.117,128.815C70.117,130.473 69.144,131.454 67.764,131.454C66.386,131.454 65.404,130.473 65.404,128.815L65.404,124.87L66.627,124.87L66.627,128.852Z" style="fill:rgb(0,158,214);"/>
                <path d="M70.912,130.139L72.664,130.139C73.432,130.139 73.829,130.047 73.829,129.63C73.829,129.333 73.59,129.093 73.116,128.787L71.895,127.991C71.256,127.574 70.951,127.074 70.951,126.463C70.951,125.528 71.681,124.87 72.904,124.87L74.895,124.87L74.895,126.037L73.116,126.037C72.515,126.037 72.219,126.12 72.219,126.472C72.219,126.759 72.46,126.945 72.866,127.204L74.201,128.065C74.839,128.473 75.153,128.991 75.153,129.602C75.153,130.074 74.959,130.519 74.608,130.843C74.089,131.315 73.488,131.343 72.671,131.343L70.912,131.343L70.912,130.139Z" style="fill:rgb(0,158,214);"/>
                <path d="M78.375,131.343L77.145,131.343L77.145,126.037L75.617,126.037L75.617,124.87L79.914,124.87L79.914,126.037L78.375,126.037L78.375,131.343Z" style="fill:rgb(0,158,214);"/>
                <path d="M81.59,128.093C81.59,127.519 81.792,127 82.191,126.584C82.57,126.185 83.081,125.963 83.627,125.963C84.173,125.963 84.673,126.185 85.051,126.584C85.442,126.991 85.653,127.519 85.653,128.093C85.653,128.667 85.442,129.204 85.051,129.611C84.673,130.009 84.173,130.232 83.627,130.232C83.081,130.232 82.57,130.009 82.191,129.611C81.792,129.195 81.59,128.667 81.59,128.093ZM80.321,128.102C80.321,129.009 80.654,129.824 81.293,130.473C81.914,131.102 82.736,131.454 83.627,131.454C84.516,131.454 85.33,131.112 85.959,130.473C86.588,129.834 86.922,129 86.922,128.102C86.922,127.204 86.588,126.38 85.959,125.741C85.33,125.102 84.516,124.759 83.627,124.759C82.736,124.759 81.914,125.102 81.293,125.732C80.654,126.38 80.321,127.195 80.321,128.102Z" style="fill:rgb(0,158,214);"/>
                <path d="M89.145,126.926L88.59,131.343L87.329,131.343L88.127,125.972C88.246,125.176 88.618,124.778 89.209,124.778C89.775,124.778 90.144,125.139 90.321,125.861L90.838,128C90.941,128.417 91.016,128.806 91.051,129.167C91.089,128.797 91.162,128.417 91.265,128L91.784,125.861C91.959,125.139 92.329,124.778 92.895,124.778C93.497,124.778 93.858,125.167 93.977,125.972L94.774,131.343L93.516,131.343L92.959,126.926C92.951,126.834 92.914,126.519 92.868,125.972L91.71,130.63C91.579,131.158 91.44,131.389 91.051,131.389C90.672,131.389 90.525,131.13 90.404,130.63L89.256,125.972C89.209,126.398 89.173,126.713 89.145,126.926Z" style="fill:rgb(0,158,214);"/>
                <path d="M95.227,130.139L96.977,130.139C97.746,130.139 98.144,130.047 98.144,129.63C98.144,129.333 97.904,129.093 97.431,128.787L96.209,127.991C95.57,127.574 95.266,127.074 95.266,126.463C95.266,125.528 95.996,124.87 97.22,124.87L99.209,124.87L99.209,126.037L97.431,126.037C96.831,126.037 96.534,126.12 96.534,126.472C96.534,126.759 96.775,126.945 97.181,127.204L98.516,128.065C99.153,128.473 99.468,128.991 99.468,129.602C99.468,130.074 99.274,130.519 98.923,130.843C98.405,131.315 97.801,131.343 96.987,131.343L95.227,131.343L95.227,130.139Z" style="fill:rgb(0,158,214);"/>
                <path d="M103.942,128.093C103.942,127.519 104.144,127 104.542,126.584C104.922,126.185 105.432,125.963 105.977,125.963C106.524,125.963 107.024,126.185 107.403,126.584C107.792,126.991 108.005,127.519 108.005,128.093C108.005,128.667 107.792,129.204 107.403,129.611C107.024,130.009 106.524,130.232 105.977,130.232C105.432,130.232 104.922,130.009 104.542,129.611C104.144,129.195 103.942,128.667 103.942,128.093ZM102.673,128.102C102.673,129.009 103.006,129.824 103.644,130.473C104.264,131.102 105.089,131.454 105.977,131.454C106.868,131.454 107.681,131.112 108.311,130.473C108.941,129.834 109.274,129 109.274,128.102C109.274,127.204 108.941,126.38 108.311,125.741C107.681,125.102 106.868,124.759 105.977,124.759C105.089,124.759 104.264,125.102 103.644,125.732C103.006,126.38 102.673,127.195 102.673,128.102Z" style="fill:rgb(0,158,214);"/>
                <path d="M110.024,127.102C110.024,125.676 110.941,124.75 112.246,124.75C113.479,124.75 114.394,125.602 114.394,126.63C114.394,127.213 114.117,127.694 113.59,128.037C114.292,128.278 114.524,128.685 114.524,129.445L114.524,131.343L113.302,131.343L113.302,129.695C113.302,128.954 113.033,128.778 112.246,128.778L111.581,128.778L111.581,127.639L111.969,127.639C112.728,127.639 113.117,127.343 113.117,126.778C113.117,126.287 112.738,125.917 112.246,125.917C111.616,125.917 111.247,126.361 111.247,127.185L111.247,131.334L110.024,131.334L110.024,127.102Z" style="fill:rgb(0,158,214);"/>
                <path d="M121.737,127.787C121.737,128.491 121.635,129.093 121.385,129.602C120.82,130.76 119.718,131.454 118.431,131.454C117.552,131.454 116.728,131.102 116.098,130.473C115.468,129.834 115.125,129 115.125,128.102C115.125,127.195 115.468,126.371 116.098,125.732C116.718,125.112 117.561,124.769 118.515,124.769C119.459,124.769 120.283,125.121 121.015,125.833L120.2,126.658C119.672,126.185 119.135,125.954 118.533,125.954C117.302,125.954 116.395,126.88 116.395,128.093C116.395,128.667 116.607,129.204 116.996,129.611C117.376,130.009 117.894,130.232 118.431,130.232C119.45,130.232 120.19,129.611 120.376,128.63L118.468,128.63L118.468,127.491L121.728,127.491C121.728,127.593 121.737,127.686 121.737,127.787Z" style="fill:rgb(0,158,214);"/>
                <path d="M125.978,128.547L123.987,128.547L123.987,127.361L125.978,127.361L125.978,127.278C125.978,126.436 125.542,125.945 124.839,125.945C124.117,125.945 123.709,126.426 123.709,127.361L123.709,131.343L122.487,131.343L122.487,127.398C122.487,125.741 123.468,124.759 124.848,124.759C126.228,124.759 127.2,125.741 127.2,127.398L127.2,131.343L125.978,131.343L125.978,128.547Z" style="fill:rgb(0,158,214);"/>
                <path d="M128.191,125.917C128.191,125.167 128.506,124.778 129.117,124.778C129.589,124.778 129.913,125.065 130.19,125.639L131.654,128.676C131.829,129.037 131.959,129.371 132.043,129.695C131.987,129.047 131.959,128.565 131.959,128.26L131.959,124.87L133.135,124.87L133.135,130.296C133.135,131.047 132.839,131.426 132.302,131.426C131.839,131.426 131.617,131.13 131.348,130.574L129.663,127.111C129.515,126.815 129.394,126.509 129.292,126.195C129.339,126.778 129.357,127.222 129.357,127.528L129.357,131.343L128.191,131.343L128.191,125.917Z" style="fill:rgb(0,158,214);"/>
                <rect x="134.209" y="124.87" width="1.222" height="6.473" style="fill:rgb(0,158,214);"/>
                <path d="M136.107,130.509C136.107,130.232 136.218,129.935 136.441,129.63L139.07,126.074L136.422,126.074L136.422,124.87L139.533,124.87C140.135,124.87 140.524,125.204 140.524,125.695C140.524,126 140.367,126.324 140.07,126.722L137.552,130.121L140.617,130.121L140.617,131.343L137.191,131.343C136.468,131.343 136.107,131.112 136.107,130.509Z" style="fill:rgb(0,158,214);"/>
                <path d="M144.709,128.547L142.719,128.547L142.719,127.361L144.709,127.361L144.709,127.278C144.709,126.436 144.274,125.945 143.571,125.945C142.848,125.945 142.441,126.426 142.441,127.361L142.441,131.343L141.218,131.343L141.218,127.398C141.218,125.741 142.2,124.759 143.58,124.759C144.959,124.759 145.932,125.741 145.932,127.398L145.932,131.343L144.709,131.343L144.709,128.547Z" style="fill:rgb(0,158,214);"/>
                <path d="M149.112,131.343L147.88,131.343L147.88,126.037L146.352,126.037L146.352,124.87L150.649,124.87L150.649,126.037L149.112,126.037L149.112,131.343Z" style="fill:rgb(0,158,214);"/>
                <rect x="151.334" y="124.87" width="1.222" height="6.473" style="fill:rgb(0,158,214);"/>
                <path d="M154.658,128.093C154.658,127.519 154.861,127 155.26,126.584C155.639,126.185 156.148,125.963 156.695,125.963C157.241,125.963 157.741,126.185 158.121,126.584C158.51,126.991 158.723,127.519 158.723,128.093C158.723,128.667 158.51,129.204 158.121,129.611C157.741,130.009 157.241,130.232 156.695,130.232C156.148,130.232 155.639,130.009 155.26,129.611C154.861,129.195 154.658,128.667 154.658,128.093ZM153.389,128.102C153.389,129.009 153.723,129.824 154.361,130.473C154.982,131.102 155.806,131.454 156.695,131.454C157.584,131.454 158.399,131.112 159.028,130.473C159.658,129.834 159.991,129 159.991,128.102C159.991,127.204 159.658,126.38 159.028,125.741C158.399,125.102 157.584,124.759 156.695,124.759C155.806,124.759 154.982,125.102 154.361,125.732C153.723,126.38 153.389,127.195 153.389,128.102Z" style="fill:rgb(0,158,214);"/>
                <path d="M160.787,125.917C160.787,125.167 161.103,124.778 161.714,124.778C162.186,124.778 162.51,125.065 162.787,125.639L164.25,128.676C164.426,129.037 164.556,129.371 164.639,129.695C164.584,129.047 164.556,128.565 164.556,128.26L164.556,124.87L165.732,124.87L165.732,130.296C165.732,131.047 165.436,131.426 164.899,131.426C164.436,131.426 164.214,131.13 163.945,130.574L162.26,127.111C162.112,126.815 161.991,126.509 161.889,126.195C161.936,126.778 161.954,127.222 161.954,127.528L161.954,131.343L160.787,131.343L160.787,125.917Z" style="fill:rgb(0,158,214);"/>
            </g>
        </g>
        <g id="World_Customs_Organization.svg1" serif:id="World_Customs_Organization.svg">
        </g>
    </g>
</svg>
